<svg xmlns="http://www.w3.org/2000/svg" width="88" height="152" viewBox="0 0 88 152"><path fill="#231815" d="M52.507 117.301l2.357 15.008h-4.716v4.288h21.224v-4.288h-2.359l-2.062-12.864c-.343-2.137 2.064-2.144 2.064-2.144v-15.008H50.148l-5.268 19.296-4.165-19.296H19.489v15.008s2.359 0 2.064 2.144l-2.064 12.864H17.13v4.288h12.971v-4.288h-4.717l2.359-15.008 8.254 19.296h8.254l8.256-19.296z"/><path fill="#fff" d="M83.892 33.339l-.084.247-.027.06a3.107 3.107 0 00-.164.46l-.031.16-.008.621-.003 2.094-.005.163-.017.096-.029.127-.066.285-.058.187-.032.193-.06.287-.01.031-.058.22-.084.247-.071.217-.191.589-.025.094-.084.416-.041.123-.067.252-.054.255-.014.097-.011.196-.043.223-.083.315-.06.22-.017.195-.034.193-.029.227-.036.125a1.749 1.749 0 01-.166.318l-.115.197c-.061.116-.103.24-.13.368l-.058.22a.804.804 0 01-.103.274 9.283 9.283 0 00-.437.876l-.092.173-.081.142-.129.264-.077.249-.059.186a.885.885 0 01-.165.316c-.092.11-.165.231-.227.358-.105.216-.23.42-.354.625l-.126.265a2.931 2.931 0 01-.324.639l-.129.227-.161.321-.153.211-.188.182c-.251.246-.265.266-.425.611l-.114.305c-.04.175-.142.317-.248.455l-.163.159c-.133.097-.249.212-.368.324l-.321.278c-.132.098-.24.221-.328.361l-.12.194a1.54 1.54 0 01-.513.539l-.352.237a1.292 1.292 0 00-.269.236l-.075.107-.094.172-.147.255a.9.9 0 01-.271.278l-.307.186-.115.062-.209.155-.138.139-.089.096c-.258.275-.284.301-.669.514a5.297 5.297 0 00-.445.273l-.281.166-.262.132-.229.125a2.828 2.828 0 01-.527.258l-.334.131-.307.11-.243.093-.345.186-.17.097a3.064 3.064 0 00-.52.337l-.164.107a2.837 2.837 0 01-.57.241l-.124.039-.096.019-.261.004a6.02 6.02 0 00-.817.005l-.033.001c-.227.007-.229.006-.442-.084l-.242-.097c-.19-.086-.362-.199-.54-.306l-.142-.134-.272-.407-.276-.481a2.786 2.786 0 00-.317-.494l-.249-.303-.285-.358-.054-.082a5.158 5.158 0 01-.305-.614l-.027-.094-.046-.19-.056-.221-.068-.218-.026-.128-.016-.228-.011-.097c-.037-.105-.037-.214-.049-.322l-.019-.096a.772.772 0 01-.04-.257c-.01-.272-.014-.545-.012-.818a1.028 1.028 0 00-.029-.292l-.013-.13-.016-.327-.022-.128a.461.461 0 01-.01-.289.383.383 0 00-.002-.225l-.014-.129-.021-.425-.01-.097c-.047-.137-.042-.279-.043-.421l.013-.261-.04-.176c.036-.386-.069-.435-.04-.767.029-.331.08-.443.131-.716.071-.376.011-.233.011-.443l.023-.239-.015-.198-.016-.096a16.94 16.94 0 01-.004-1.275l.038-.191.065-.252.069-.218.023-.128.037-.258.011-.097.005-.392.001-1.014.011-.392.04-.191.067-.252.065-.219.018-.096.015-.392.004-.262.017-.129.026-.161c.008-.098.01-.197.059-.286l.065-.253.056-.255.015-.096.012-.229.025-.127.062-.219.057-.221.024-.061c.077-.26.161-.519.25-.776l.062-.185.051-.189.064-.219.112-.34.112-.341.019-.062.08-.282.09-.279.071-.217.072-.216.096-.345.068-.251.088-.28.031-.126.05-.256.005-.032c0-.123.045-.234.097-.343l.04-.089.073-.216a.741.741 0 01.145-.29l.097-.131.081-.142c.064-.12.08-.248.064-.381l-.014-.063-.128-.264-.144-.13a.418.418 0 00-.318-.016l-.145.074-.212.153-.115.116-.267.371-.24.31-.191.265c-.077.106-.155.21-.247.304l-.068.071c-.087.097-.19.18-.261.292l-.218.286-.082.102-.111.16-.161.284-.092.313-.018.062-.068.218-.047.19-.032.092-.07.217-.078.179-.061.151a3.229 3.229 0 01-.331.636 1.888 1.888 0 00-.199.445l-.074.284-.029.093-.076.181-.076.215-.06.254-.011.097a.771.771 0 01-.083.347l-.101.24c-.058.106-.085.223-.122.337l-.021.095c-.004.133-.064.253-.09.38l-.072.216-.04.158-.012.097-.036.159-.008.229-.013.556-.013.13c-.044.126-.043.257-.056.387l-.018.096-.037.192-.046.257-.018.129a9.192 9.192 0 00-.014.621l-.027.226-.016.096-.03.226-.057.187-.065.252-.018.063-.029.16-.007.425-.006.491-.032.193-.052.222-.059.186-.074.216-.041.124-.044.123-.025.095-.046.122-.059.221-.021.128-.015.425c-.003.109.009.219-.031.324l-.015.196a.62.62 0 01-.055.254l-.065.219-.055.222-.016.063c-.01.109-.029.216-.066.319a1.288 1.288 0 01-.219.505l-.184.228-.127.103-.246.161-.272.181-.281.166a.832.832 0 01-.277.093l-.287.059-.249.077-.121.048c-.15.059-.518.231-.651.302l-.184.135-.231.231-.252.207-.513.35-.184.136c-.16.132-.322.26-.47.405a1.914 1.914 0 01-.307.244l-.213.151-.209.156-.245.216a4.645 4.645 0 01-.502.417l-.129.1-.197.173-.18.141c-.1.085-.202.167-.319.227l-.32.227-.148.129-.35.344c-.19.198-.407.361-.642.501l-.171.095-.553.281-.308.184a1.043 1.043 0 00-.278.272l-.093.134c-.09.151-.207.28-.329.405l-.348.346c-.12.114-.211.249-.308.38l-.047.086c-.095.171-.183.346-.292.51l-.155.287-.139.259c-.102.18-.211.356-.334.523l-.038.053-.182.31-.137.401-.015.063a1.34 1.34 0 01-.065.319.732.732 0 01-.089.278c-.056.118-.112.236-.187.344l-.152.288-.038.124-.079.282-.067.149a.897.897 0 01-.238.308l-.087.041-.13.013-.096.017-.159.033c-.294.014-.588.023-.883.017a31.162 31.162 0 00-1.014-.007c-.382.004-.763-.004-1.145-.015l-.097-.009c-.115-.039-.236-.042-.354-.056l-.219-.064-.054-.034-.143-.178a.727.727 0 01-.143-.325l-.006-.032a1.033 1.033 0 01-.053-.353l-.002-.294v-1.047l-.008-.392-.01-.097-.059-.254-.197-.553-.013-.03a1.937 1.937 0 00-.316-.493c-.099-.116-.207-.224-.29-.354a2.382 2.382 0 00-.399-.385l-.202-.166a9.224 9.224 0 01-.601-.602l-.125-.151-.195-.22-.184-.135-.144-.076-.258-.141-.235-.176-.121-.109-.329-.318a1.166 1.166 0 00-.507-.284l-.254-.058-.127-.028-.062-.02-.195-.025-.189-.05-.127-.027-.215-.076-.178-.083c-.091-.036-.178-.084-.278-.09a.85.85 0 00-.32-.056l-.262-.006-.258-.034-.162-.023-.095-.022-.222-.051-.096-.019-.225-.037a.656.656 0 01-.255-.051 1.043 1.043 0 01-.339-.113l-.301-.126-.28-.087-.097-.012-.392-.014-.193-.03-.064-.014-.194-.027-.217-.071-.217-.07-.221-.055-.255-.053-.223-.045-.064-.012-.192-.034-.276-.099-.209-.093-.246-.086-.128-.023-.16-.033-.128-.025c-.174-.012-.348-.022-.523-.012l-.261.013a4.806 4.806 0 01-.588 0 13.97 13.97 0 00-.915-.023c-.24 0-.48.012-.719.027l-.097.013-.226.028-1.21.002c-.098 0-.197.003-.291-.034-.218-.015-.435-.033-.653-.028l-.425.02-.065.009c-.105.039-.215.03-.324.034l-.523.015-.129.016c-.148.053-.3.047-.453.048l-.262-.006-.294.005-.097.012-.314.088-.127.028-.261.016-.161.023-.194.006-.259-.03-.261-.018-.095-.023-.188-.056-.185-.063-.186-.061-.185-.063-.184-.065-.12-.05c-.154-.063-.253-.09-.465-.148-.136-.037-.273-.072-.404-.127l-.202-.107-.255-.146a.606.606 0 00-.25-.068l-.196-.009-.097-.01c-.105-.036-.215-.035-.323-.046l-.127-.031-.126-.034-.094-.027-.03-.013-.274-.106-.149-.065c-.156-.079-.323-.129-.487-.187l-.303-.119-.086-.047c-.13-.099-.264-.192-.38-.309l-.511-.507a1.876 1.876 0 00-.506-.354l-.204-.102a1.077 1.077 0 01-.349-.291l-.019-.027a1.329 1.329 0 00-.496-.415l-.172-.094a1.358 1.358 0 01-.414-.366c-.1-.13-.214-.247-.327-.365l-.247-.262-.12-.155-.127-.19a4.7 4.7 0 00-.452-.599 2.283 2.283 0 01-.311-.458 10.628 10.628 0 01-.297-.618l-.112-.306-.08-.248-.115-.27-.109-.237-.095-.208-.067-.217-.012-.064c-.047-.127-.037-.257-.026-.388l.016-.063a.701.701 0 00-.003-.292l-.022-.095c-.003-.156-.065-.297-.104-.443l-.062-.185-.053-.188-.059-.186-.07-.318-.013-.064-.044-.223-.046-.257-.019-.162c-.011-.119-.005-.24-.043-.356l-.008-.097v-.393l.017-.129.021-.129.028-.26.079-.249.03-.093.063-.253.057-.254.015-.097.039-.158.037-.125a1.02 1.02 0 00.067-.318l.011-.097c.04-.116.033-.237.035-.356l.005-.556a1.266 1.266 0 01.112-.473l.106-.273a.52.52 0 00.048-.254l-.003-.229.002-.36.04-.191.093-.243.09-.244.035-.192.004-.196.017-.228.057-.187.086-.246.043-.157.074-.317.139-.366.139-.33.07-.217.037-.192.019-.096.063-.22.053-.154.082-.178c.064-.126.132-.25.212-.367a4.02 4.02 0 00.285-.476l.066-.113a1.38 1.38 0 01.244-.305l.23-.233.12-.155.232-.394.119-.303.033-.159.016-.196.11-.375.172-.387.243-.425.1-.129a3.64 3.64 0 01.523-.493c.104-.081.197-.171.277-.276l.123-.152.479-.536.066-.073.149-.214.148-.291.122-.192a1.39 1.39 0 01.227-.233l.377-.313.072-.066.118-.113c.243-.232.242-.233.534-.429.183-.123.339-.274.462-.456.136-.201.305-.371.503-.509.136-.095.251-.208.346-.343a1.51 1.51 0 01.446-.426l.217-.146c.159-.117.333-.205.513-.286l.209-.091a1.86 1.86 0 00.562-.386l.535-.529.142-.136c.114-.102.242-.185.377-.256.136-.071.282-.113.425-.166.166-.061.386-.165.527-.257l.38-.255.224-.135.525-.265c.176-.086.358-.159.546-.213l.217-.07.214-.078.216-.075.247-.085.274-.106.237-.109.243-.096.248-.08.286-.066.129-.021.312-.093.125-.036c.093-.031.186-.06.286-.064l.126-.032.031-.011c.121-.008.232-.059.347-.091l.252-.066.063-.016.192-.034.491-.009 1.047-.001.294-.003a.78.78 0 00.257-.04l.222-.049.25-.072.216-.072.403-.132.191-.042c.138-.052.279-.04.42-.034l.064.013.094.027.222.053.189.048a.75.75 0 00.256.048l.425.011h.883l.194.021.097.014.261.015.159.033.221.054.221.054.063.017.16.03c.283.011.567.009.85.002l.192-.033.096-.021.158-.039.314-.086.13-.014.225-.035.259-.028.128-.022.219-.064.222-.049c.153-.015.305-.01.457.008l.095.02a.79.79 0 00.288.05c.153.005.306.005.449-.059l.223-.051.192-.033.126-.031.063-.018.347-.091.22-.06.063-.016.192-.037.163-.009.128-.024.095-.024c.143-.009.274-.069.411-.102l.093-.029.227-.026.192-.037.229-.011c.101 0 .193-.03.283-.072l.197-.115.078-.06.347-.244.339-.197.332-.208c.201-.152.419-.274.644-.385.206-.102.399-.223.585-.357.116-.083.216-.183.308-.291l.231-.316c.127-.165.273-.312.432-.444l.109-.071.278-.171.182-.137.024-.022c.292-.284.314-.316.47-.658l.053-.119.085-.176c.1-.183.221-.348.367-.498.145-.149.406-.492.561-.762l.089-.174a1.44 1.44 0 01.205-.37l.342-.517.133-.186.114-.116c.107-.077.198-.171.289-.265l.107-.124.171-.198.173-.149c.193-.144.369-.306.525-.49l.122-.153c.097-.133.213-.245.346-.344l.308-.292.204-.244c.048-.026.051-.148.193-.239.142-.091.187-.108.239-.097l.204.04.15.091.059.027.206.098.187.059c.06.025.16.077.221.168l.131.227c.038.058.127.248.182.244.055-.004.182-.094.227-.128l.104-.079.049-.042.125-.295.094-.361.084-.247.02-.095.043-.224.003-.129-.037-.225-.046-.223-.058-.254-.072-.217-.002-.064-.07-.181c.002-.122.069-.22.106-.333.034-.104.157-.163.231-.244a1.89 1.89 0 01.391-.345c.159-.135.34-.235.526-.326l.233-.119.227-.129.642-.322.468-.233.264-.13.271-.112.187-.054.094-.026.16-.028.392-.012.193-.031.063-.014c.144-.004.274-.066.411-.099l.189-.048.222-.051.229-.013.192-.037.283-.075.253-.062.129-.02.458-.015h1.145l1.145.001.458.015.191.04.249.078.282.081.249.077.247.085.062.021.321.059.097.007.327.003 1.014.004.229.006.191.037.031.011c.133.014.251.068.369.125.157.076.312.155.454.256l.301.196c.145.098.3.176.464.236l.335.128c.159.072.319.142.463.242.224.156.462.287.706.409.146.073.295.141.429.236l.165.106c.121.077.224.174.309.288l.172.197.201.166.132.097c.149.095.271.216.373.361l.244.307.043.049c.106.076.197.172.319.227l.14.073c.138.07.257.163.362.276l.132.186.163.32.104.165c.149.191.213.267.344.393l.171.152c.152.124.296.258.432.399a.96.96 0 01.168.24l.127.3.065.184.058.187.054.254.047.223.008.032c.021.201.12.371.213.544.124.179.246.36.354.549l.303.385.15.173.093.134.119.195.298.544.141.22c.102.128.189.266.274.406.079.13.161.259.254.38l.128.19c.107.177.209.357.303.541.099.195.22.375.37.536.112.12.203.255.295.391l.241.35.27.328.14.18c.161.207.283.439.424.659l.09.21.075.283.057.22.057.187.065.219.059.22c.075.242.081.267.16.427l.141.33.106.239.128.228.223.362.041.089.144.364c.061.128.116.258.198.375l.253.381c.112.174.212.355.267.557l.086.246.073.216.025.128.005.36.002.392.029.16.017.063.023.195.051.189.032.126.08.214.187.381.26.527.134.333.033.126c.026.128.07.252.074.384l.017.063.031.127.049.256.019.129.043.257.026.194.044.257.02.129.019.129c.041.104.044.213.053.321l.022.162a.69.69 0 01.003.355l-.015.096-.003.294.014.096.034.226.014.425c.002.087 0 .175.034.258l.007.032.024.195.056.187.022.095.098.277.078.249.091.279.083.247.021.095.015.13.04.191.005.196.014.327.013.097c.045.115.042.235.042.355l-.015.223z"/><path fill="#231815" d="M65.292 48.866l.051.155.018.096-.009.458-.013.064-.034.193-.043.257-.014.096-.001.229.026.161.039.192.082.315.094.278.082.213.102.205.337.671.073.146c.11.248.296.428.511.583.219.126.404.294.58.474l.07.069c.154.141.325.255.524.324l.216.074a.74.74 0 00.286.059c.262.01.523.009.785-.008l.191-.039.063-.016.222-.052.285-.07.097-.016.128-.025.247-.085.555-.277.161-.11.26-.249c.102-.099.218-.18.343-.248l.115-.061c.157-.077.305-.169.441-.278l.276-.173.305-.116.16-.029c.104-.04.212-.048.321-.054l.131-.009.096-.015.226-.034.065-.004.222-.047.276-.098.238-.106.214-.08.251-.072.123-.042a.435.435 0 00.261-.184l.033-.056.076-.316.01-.163.033-.159.019-.062c.03-.126.086-.306.126-.404l.073-.182.069-.147.202-.297c.077-.106.147-.215.202-.335l.151-.289.255-.339.135-.184a.648.648 0 00.121-.299.764.764 0 00.051-.288.768.768 0 01.051-.288c.007-.111.05-.211.093-.311l.17-.389.064-.15.075-.216c.066-.231.157-.452.266-.665l.133-.262.242-.535.091-.279c.036-.125.077-.249.132-.368l.194-.377.163-.245.146-.217.161-.284.092-.244.023-.095.024-.128.03-.193.01-.36.04-.224.052-.222.072-.216.02-.062.081-.349c.038-.126.092-.244.161-.356l.057-.08c.069-.111.138-.222.184-.345l.055-.187.025-.094.065-.219.05-.189.049-.155.052-.322.007-.163.001-.523.013-.49.038-.191.076-.249.058-.221.019-.096.015-.261c.007-.13-.013-.262.033-.389l.018-.327.032-.159.059-.22.054-.222.028-.094.016-.096-.001-.294-.009-.064c-.043-.115-.042-.235-.049-.355a3.175 3.175 0 01.009-.425l.01-.064c.049-.125.045-.257.059-.386l.018-.096.033-.225-.001-.392.002-.327.042-.224.078-.283.015-.096.022-.195c.03-.107.03-.215.033-.324l.017-.588.013-.13c.044-.127.035-.258.033-.389l-.006-.065c-.043-.127-.031-.259-.031-.389l.011-.097c.044-.161.029-.325.02-.488l-.027-.127c-.006-.119-.016-.239.019-.357l.015-.129.006-.327.004-.752.009-.261.014-.096c.039-.093.041-.191.051-.289l.013-.097c.037-.094.037-.192.044-.29.006-.087.01-.174.045-.256l.013-.064c.014-.141.025-.282.012-.424l-.038-.191-.024-.094-.064-.218-.146-.254-.184-.229a.385.385 0 00-.185-.129l-.15-.064a.6.6 0 00-.317-.058l-.096.015a4.73 4.73 0 00-.481.202l-.306.188-.334.262-.426.406-.447.432-.207.16-.209.09-.253.063-.16-.013-.121-.048c-.327-.158-.311-.144-.528-.372l-.094-.091a.477.477 0 00-.228-.121l-.19-.046-.065.004-.152.06-.173.092a.753.753 0 00-.305.287c-.129.202-.25.408-.356.624l-.046.087-.181.271-.236.174-.062.019-.196.009a.43.43 0 01-.246-.075l-.063-.072-.051-.188-.012-.294-.004-.294c.006-.144-.033-.28-.068-.417l-.015-.029-.152-.119-.032.001-.091.034-.156.114-.177.234-.159.247c-.096.158-.194.315-.273.483l-.134.261-.163.245-.145.255-.343.631-.102.167c-.063.09-.11.187-.147.29l-.063.15a1.1 1.1 0 01-.306.418l-.226.188-.097.087a2.496 2.496 0 00-.313.417 6.138 6.138 0 00-.342.74l-.115.305-.104.274-.124.336a2.07 2.07 0 01-.236.464 2.123 2.123 0 00-.246.423l-.049.12c-.069.208-.171.4-.287.585a1.395 1.395 0 00-.185.38c-.087.2-.179.397-.297.581a1.35 1.35 0 00-.156.322l-.113.271-.121.267a1.873 1.873 0 00-.155.462l-.066.218-.036.091c-.066.161-.133.322-.18.489l-.03.093-.076.351-.04.124a2.16 2.16 0 01-.214.403 1.6 1.6 0 00-.221.471l-.073.216-.076.215-.07.217-.073.216-.093.346a.708.708 0 00-.054.287l-.006.36v1.309l-.004.327-.033.225-.012.064c-.004.144-.061.275-.103.41l-.098.276a2.298 2.298 0 01-.283.586c-.084.127-.172.252-.239.389l-.112.236-.089.245-.228.68-.072.217-.063.185-.07.217-.031.126-.073.318-.064.351c-.032.156-.011.392-.023.534-.011.142.125.574.102.841-.023.258.015.865.114 1.083zm9.374-17.543v-.033h.004v-.098l.039-.157.099-.205a.405.405 0 00.047-.22l-.013-.228.006-.163.026-.093a.724.724 0 01.141-.217l.136-.14.097-.131.109-.119.162-.109.122-.041.13-.004a.25.25 0 01.175.075l.045.047.047.118a.603.603 0 01-.051.253l-.185.343-.087.138-.078.178-.074.282-.074.249-.051.187-.072.249-.034.055a1.221 1.221 0 01-.318.277l-.09.034-.118-.039-.087-.173-.014-.063a.536.536 0 01-.039-.252zm-.922 1.32l.032-.056.177-.19a.234.234 0 01.204-.08h.036l.094.008.03.011a.28.28 0 01.14.206l.002.097a.463.463 0 01-.186.363l-.172.088-.128.014a.308.308 0 01-.233-.097l-.053-.114a.533.533 0 01.057-.25zM45.578 10.085c.034.057.114.045.068.17-.045.125-.134.202-.14.208l-.201.155-.214.07-.121.043-.434.085-.43.062-.218.019-.301.026-.219.007-.213-.022-.176-.035-.119-.03a1.24 1.24 0 00-.515.015l-.129.028-.083.029-.102.061-.142.064-.126.043-.219.022c-.074-.013-.137-.083-.131-.158.006-.075.189-.478.222-.538.082-.151.165-.3.261-.439s.214-.239.332-.359c.063-.065.142-.102.228-.143l.294-.105.302-.053.123-.02.149-.009c.35.018.688.067 1.027.151l.097.037.286.121.279.125.063.022c.111.042.219.1.316.164l.094.068.092.116z"/><path fill="#fff" d="M42.212 93.938l1.439-.004c.305-.001.61.012.915.024l.226.031.129.017.261.016.125.034.321.161.081.055.37.322.142.136c.165.143.323.293.472.452l.131.097.155.044h.098a.314.314 0 00.225-.118l.212-.248.133-.144.056-.08.132-.262.067-.218.034-.126.014-.063.001-.229-.012-.064a1.625 1.625 0 01-.041-.486l.023-.095.068-.148.085-.246.021-.162a2.432 2.432 0 00-.004-.49 1.878 1.878 0 01.007-.424l.02-.095.046-.223.026-.127.031-.159-.001-.425-.011-.097c-.047-.114-.039-.236-.052-.354l-.013-.097c-.049-.113-.042-.235-.061-.353l-.024-.095-.078-.316-.014-.097-.041-.191-.022-.095-.053-.255-.021-.129-.022-.128-.038-.225-.011-.294-.029-.193-.015-.096-.012-.196c-.007-.109-.007-.217-.046-.322l-.018-.129-.037-.158-.027-.127-.013-.097-.05-.189-.016-.196-.005-.032c-.054-.158-.05-.322-.053-.485l-.001-.589-.002-.262-.016-.129-.033-.226-.03-.292-.051-.222-.069-.285-.053-.154-.051-.12-.185-.382c-.075-.147-.108-.163-.262-.229h-.063l-.091.036-.052.039a2.397 2.397 0 00-.19.379l-.016.063-.067.251-.098.311-.055.221-.057.254-.01.064c-.047.125-.048.256-.055.387l-.037.225-.02.129-.045.257-.021.129-.052.289-.018.129-.014.097c-.044.114-.048.234-.061.353l-.023.095-.025.128-.021.294-.04.291v.294l.005.294.009.097c.039.116.03.237.04.356.008.108.004.219.046.322l.023.195.04.258.021.162.043.224.021.128.04.258.019.129.027.26c.038.082.034.17.035.257l.012.654.016.49.017.129a.765.765 0 01-.001.356l-.015.096-.019.261-.038.158-.084.213a.688.688 0 01-.404.402.329.329 0 01-.193.017l-.254-.06-.089-.039-.411-.2c-.089-.039-.178-.083-.279-.089l-.095-.025-.096-.02-.457-.021c-.131-.002-.262.009-.389-.031l-.032-.004-.49-.019-.654-.001c-.382 0-.763.004-1.145-.009l-.226-.031-.129.001-.193.028a7.859 7.859 0 01-.752.002l-.126-.03-.209-.093c-.174-.091-.358-.158-.539-.234l-.244-.092-.204-.103a.803.803 0 01-.289-.26 2.522 2.522 0 01-.205-.333l-.043-.088-.144-.256-.178-.234-.089-.096-.137-.141a1.525 1.525 0 01-.28-.4l-.247-.497-.087-.211-.091-.209a1.393 1.393 0 00-.222-.36l-.206-.253a1.35 1.35 0 01-.246-.421l-.008-.032-.056-.153-.136-.401-.067-.218-.071-.217-.049-.155-.014-.228-.01-.425-.012-.097-.032-.226-.018-.327-.013-.097c-.037-.104-.041-.214-.052-.322l-.012-.064c-.052-.112-.05-.233-.061-.352l-.003-.032c-.054-.192-.048-.389-.049-.585l.009-.654c.002-.098.001-.196.032-.291l.014-.129c.014-.239.027-.479.026-.719l.018-.162-.007-.16.004-.096.021-.128.021-.425.019-.129a.776.776 0 00.046-.256l.043-.224.018-.129.046-.257.015-.096.014-.229.017-.129c.033-.095.033-.193.033-.291v-.491l.017-.588.012-.13c.038-.117.031-.237.038-.356l.011-.261.029-.16.018-.063c.018-.132.071-.25.129-.368.091-.187.197-.364.315-.534a3.04 3.04 0 00.344-.665l.097-.277.117-.27.066-.184.147-.363.089-.245.015-.063.057-.186.241-.5.175-.351.115-.269.129-.227.187-.307.079-.104.226-.279.194-.221.188-.226c.13-.174.267-.344.386-.526l.083-.101.202-.257.194-.221.235-.314.104-.125.43-.448.259-.294.064-.074c.133-.131.237-.284.342-.437l.132-.186.269-.328c.117-.116.203-.256.304-.384l.05-.084c.054-.107.112-.211.147-.327l.076-.18.079-.214.064-.185c.039-.125.083-.248.14-.366.034-.127.091-.244.146-.363l.072-.182.06-.151.048-.121.079-.179.077-.214.068-.184.05-.12a.842.842 0 01.273-.361c.103-.08.207-.16.326-.216l.207-.098.089-.042.185-.064.187-.057.127-.027.224-.045.129-.019.261-.013.097-.01c.127-.043.259-.031.389-.041l.261-.011.097-.014.256-.046c.119-.009.24-.004.355-.049l.228-.01.095.02.246.087.207.096c.18.088.319.226.441.382l.05.084.097.207.079.248.089.313a.704.704 0 01.054.351l-.037.191-.038.125a.759.759 0 00-.067.317l-.005.294-.025.259-.013.13-.002.196.023.161.022.095c.005.133.064.252.093.379l.062.185c.046.09.054.187.06.286l.003.262a9.185 9.185 0 000 .621v.36l-.005.294.031.225.024.128.042.191.023.095.06.254c.012.133.056.254.109.374l.111.235c.076.119.138.247.195.377l.059.186.026.094.028.16.011.294.023.128.09.279.062.186.032.16.042.224.012.196.016.096.095.278c.094.233.212.453.351.663.102.155.18.323.247.496l.141.365.062.115c.092.148.178.3.253.457.09.188.194.365.328.525.101.12.144.267.188.413l.017.162.027.16.085.246.073.146c.074.158.163.308.214.476l.147.254c.114.146.218.299.309.461l.142.219.083.101.181.189c.197.196.328.432.43.687l.081.248a.845.845 0 01.062.318c.016.305.009.61-.003.915l-.005.327.027.127.056.153.069.148.129.264.11.306.056.221.053.188.016.063.045.19.125.301c.076.145.169.279.28.4l.068.071.16.206c.089.154.216.272.364.37l.192.123.265.127.506.227.327.147.146.072.139.086.67.339.212.083.22.057.094.027.063.014.555.027c.332.003.344-.004.656-.159a.887.887 0 00.239-.169l.346-.348.098-.086.125-.019.239.104.174.147.406.512c.091.111.154.237.207.368l.02.095.007.196a.537.537 0 01-.075.28l-.056.08a.8.8 0 01-.254.201 3.244 3.244 0 01-.452.187l-.157.041-.127.028-.161.025-.392.012-.192.036-.063.016-.158.039-.213.081-.353.17-.337.2-.078.06c-.14.122-.271.252-.364.416l-.145.218a2.097 2.097 0 00-.214.366c-.076.168-.164.331-.222.508a1.746 1.746 0 01-.188.38c-.111.175-.204.36-.3.543l-.105.165c-.173.2-.289.434-.399.672l-.153.43-.01.064-.014.229-.025.128-.003.096.021.096c.007.174.019.349.007.523l-.013.097-.037.258-.011.261-.024.161-.019.129-.005.294.027.259.023.227a.77.77 0 00.049.255l.044.19.071.217.063.185.037.158c.023.272.023.545.007.817a7.498 7.498 0 00-.01.687l.007.163.011.13.006.032.067.352.04.191c.018.14.009.284.051.421l.008.359-.009.064-.047.29-.025.128-.03.127-.067.318-.061.22-.073.181a1.06 1.06 0 01-.281.397l-.072.066-.164.106-.216.074-.127.029-.224.044-.227.029-.225.036-.097.013-.686.02-.193.027-.096.015-.228.016-.191.041-.063.016-.253.061-.22.059-.217.069-.254.058-.194.026-.258.039-.161.021-.224.041-.161.022-.223.044-.156.047-.243.095-.275.102-.156.045c-.127.027-.251.072-.383.075l-.032.007c-.093.04-.191.04-.289.041h-.065c-.403-.009-.807 0-1.21.011l-.687.005-.589.005c-.305.002-.61-.013-.915-.032l-.064-.013-.193-.032-.261-.012-.097-.01c-.104-.04-.213-.04-.321-.057l-.085-.046-.247-.261c-.084-.1-.16-.207-.218-.324l-.123-.267-.045-.156-.034-.126-.004-.095.03-.127.017-.228.026-.128.024-.128.004-.196a.62.62 0 00-.083-.312l-.096-.085-.062-.022-.094-.002-.204.103-.075.063-.174.195-.105.125a1.316 1.316 0 00-.25.381l-.29.586-.088.175a2.188 2.188 0 01-.257.378l-.023.024-.274.232c-.095.076-.207.12-.318.163l-.095.019a4.62 4.62 0 01-.588.015.786.786 0 01-.286-.059l-.214-.079-.276-.1-.192-.034-.425-.001-.294-.004c-.087-.003-.174-.005-.257-.04l-.096-.017-.348-.085-.14-.083-.309-.292-.133-.185-.103-.239-.079-.248a.879.879 0 01-.065-.351l.037-.157.123-.23.09-.245.027-.128a.687.687 0 01.121-.265l.041-.051c.151-.159.266-.345.387-.526l.077-.144.069-.25-.004-.032-.05-.12-.129-.094a.9.9 0 00-.293-.005l-.063.017a4.523 4.523 0 00-.466.236l-.159.114-.3.252-.214.202-.041.051-.308.461-.162.284-.071.147-.197.376-.217.326-.052.083-.118.156-.306.295c-.1.087-.218.144-.34.19l-.128.024a1.372 1.372 0 01-.326-.02l-.062-.019-.187-.059-.187-.057a.575.575 0 00-.285-.063l-.291-.035-.13-.013-.121-.045a2.277 2.277 0 01-.363-.277l-.143-.135c-.106-.086-.159-.206-.208-.327l-.05-.155-.026-.128a3.486 3.486 0 01-.009-.49l.009-.196c-.006-.123.041-.235.068-.351l.039-.09.125-.229c.085-.115.135-.248.204-.372l.236-.572.068-.148.037-.09c.038-.161.116-.304.197-.446l.126-.148.256-.203.112-.067.35-.176c.117-.058.234-.117.36-.153l.36-.152c.177-.083.358-.162.517-.278l.507-.298.325-.22.191-.126.194-.121.215-.147.184-.136c.103-.08.22-.142.31-.239l.189-.129.25-.154.148-.067.397-.148.179-.08.155-.049.185-.064a.761.761 0 01.252-.064.741.741 0 00.255-.05l.416-.082.094-.025.157-.045.154-.054.182-.071.161-.028.193-.027 1.014-.012 1.374-.011-.004-.004zm-10.6-1.416l.294.001.259.027.097.01.196.011c.089.002.171.03.25.068l.293.143.113.114.047.086c.06.118.093.242.093.376l-.025.588-.044.257a.478.478 0 01-.139.321 2.186 2.186 0 01-.596.451l-.297.135c-.099.014-.183.068-.271.11l-.249.155a3.723 3.723 0 00-.555.455l-.123.152-.777 1.17a3.58 3.58 0 00-.35.662l-.188.452-.083.177c-.065.138-.138.271-.186.417l-.082.178-.111.271-.147.327-.103.239-.08.248-.049.222-.009.163-.027.127-.022.095c0 .123-.049.234-.085.348a.4.4 0 01-.126.188l-.214.149-.522.269-.276.1-.096.017-.097.012-.191.042-.327.009-.065-.001-.193-.031-.369-.13-.181-.074a.705.705 0 01-.301-.189.925.925 0 01-.226-.317c-.038-.09-.083-.178-.089-.279l-.025-.094-.004-.096.043-.191.026-.094.127-.3.059-.117.293-.509.233-.354.118-.156c.113-.147.212-.303.29-.472a.433.433 0 00.027-.256c-.009-.056-.076-.12-.134-.127l-.065-.007-.131.004-.226.027a1.254 1.254 0 00-.344.184l-.101.082c-.147.097-.265.225-.384.353l-.041.051c-.058.107-.144.192-.226.278l-.297.348-.04.051-.345.476-.135.223-.095.132a2.539 2.539 0 00-.317.414l-.055.081a3.969 3.969 0 01-.478.492l-.229.123-.096.018-.294.017-.098.005c-.16.045-.324.033-.487.036h-.033l-.129-.02-.127-.03a.651.651 0 01-.293-.138l-.251-.209-.044-.048-.107-.123a1.25 1.25 0 01-.258-.413l-.031-.126-.012-.163.011-.261.073-.216.023-.061.109-.272.101-.275.088-.28.031-.092.112-.271.105-.202c.074-.107.138-.222.232-.315.111-.148.23-.29.356-.426l.111-.161.19-.304.38-.571.08-.103c.118-.129.242-.25.386-.351l.392-.294.217-.145.195-.118.166-.104c.195-.119.386-.245.591-.347.253-.126.503-.258.768-.36l.418-.184.416-.187.469-.23.465-.239 1.02-.516c.165-.084.337-.153.515-.203l.25-.076.214-.079.19-.044.191-.04.249-.078.221-.057.096-.018.196-.014.128-.022.095-.021c.156.002.295-.076.447-.092a.557.557 0 01.255-.041h.392l.001-.003zm39.852 8.455l-.021.366-.014.097-.034.258-.015.392-.032.193-.018.129-.013.261-.013.13c-.047.148-.041.301-.051.453l-.042.29-.023.227-.036.225-.023.161c-.01.108-.013.217-.055.32l-.009.065-.059.185-.221.399-.271.446-.258.416-.064.114a2.246 2.246 0 01-.292.432l-.139.181-.243.265a4.681 4.681 0 00-.363.461 4.36 4.36 0 01-.345.435l-.41.422-.154.12c-.199.132-.404.257-.592.406l-.387.242-.11.07-.147.07-.267.122-.084.049-.079.058-.296.202-.241.22-.149.058-.261-.004-.095-.02a1.62 1.62 0 01-.482-.269.82.82 0 01-.23-.273l-.074-.145-.04-.123-.033-.16-.003-.096.037-.192.018-.096.071-.284.037-.257c-.003-.145.044-.279.088-.413l.138-.331.207-.407.126-.265.075-.215.029-.127.077-.317.091-.209.335-.671.159-.322.059-.186.068-.285.072-.284.033-.092.077-.249.054-.222.014-.096.005-.359.001-.261.038-.191.093-.243c.129-.242.155-.361.256-.668l.069-.217.064-.185.091-.209.087-.246.019-.095.007-.098.033-.192.025-.161.017-.096.079-.282.12-.337c.047-.11.084-.224.162-.319a.758.758 0 01.159-.206l.144-.133.107-.075c.114-.064.227-.13.357-.156a.488.488 0 01.222-.044l.196.004.127.026.248.079.215.074.248.08c.125.037.241.098.358.157.127.063.248.136.362.22l.178.143c.16.148.311.305.461.463.091.095.16.206.23.316l.095.242.038.191c.015.139.014.281.012.448zm-8.789-6.599v.261l-.022.161-.021.095-.028.194-.08.248-.093.243-.145.292c-.052.095-.106.19-.179.272l-.099.13-.114.117-.053.036-.251.066-.359.018-.192.032-.063.015-.255.05-.217.071-.215.076-.156.048-.127.029-.127.027-.128.024-.49-.003-.096-.014-.16-.03-.124-.039-.176-.085-.227-.129-.31-.239-.214-.201-.217-.197-.116-.114-.303-.342-.159-.207a1.879 1.879 0 01-.242-.496l-.065-.184-.06-.253-.016-.096a.661.661 0 01-.038-.257l-.007-.392-.033-.192-.079-.282-.064-.286.003-.162.038-.158c.003-.133.066-.252.09-.38l.117-.304.179-.42c.044-.158.123-.301.191-.449.064-.14.151-.264.238-.389l.138-.138.216-.147a3.17 3.17 0 00.4-.282l.261-.196.083-.051.204-.102.183-.069.278-.092.248-.078a.754.754 0 01.318-.061c.246-.001.281.001.528.135l.029.016c.057.036.319.264.368.321l.086.098c.101.101.175.222.249.342l.053.118.075.181c.064.139.151.264.249.381l.044.048c.191.208.182.2.309.456l.266.524.124.301.05.189.071.351.096.277.126.265.069.148.055.153.041.157.026.128.02.129v.294l.001-.001zm-1.676 7.17l-.642-.014-.16-.031-.126-.034-.214-.077-.25-.155a1.046 1.046 0 01-.208-.207l-.038-.053a2.156 2.156 0 01-.205-.514l-.046-.19-.017-.096v-.36l.035-.192.021-.095.039-.158.084-.315.01-.097.01-.36.027-.127.061-.151.129-.188.222-.192.158-.116.164-.107c.329-.179.346-.178.681-.186a1.8 1.8 0 01.359.022l.144.073c.086.084.166.172.229.276l.107.164.056.08c.156.182.176.197.419.197l.13-.01.094-.026.195-.118.102-.082.058-.028a.401.401 0 01.225.011.564.564 0 01.346.326c.039.09.079.179.086.28l.025.094.023.095c.017.163.024.326.009.49l-.026.128-.039.158a3.014 3.014 0 00-.015.425l.006.294-.032.192-.072.216-.108.163-.092.093-.159.113a2.466 2.466 0 01-.42.179l-.248.082-.219.062-.063.016-.192.036-.663.014zM74.67 31.291v-.098l.039-.157.099-.205a.405.405 0 00.047-.22l-.013-.228.006-.163.026-.093a.724.724 0 01.141-.217l.136-.14.097-.131.109-.119.162-.109.122-.041.13-.004a.25.25 0 01.175.075l.045.047.047.118a.603.603 0 01-.051.253l-.185.343-.087.138-.078.178-.074.282-.074.249-.051.187-.072.249-.034.055a1.221 1.221 0 01-.318.277l-.09.034-.118-.039-.087-.173-.014-.063a.558.558 0 01-.039-.255v-.033l.004.003zm-.478 1.027l.094.008.03.011a.28.28 0 01.14.206l.002.097a.463.463 0 01-.186.363l-.172.088-.128.014a.308.308 0 01-.233-.097l-.053-.114a.561.561 0 01.059-.251l.032-.056.177-.19a.234.234 0 01.204-.08l.034.001z"/><path fill="#231815" d="M27.755 40.49l-.654.008-.883-.008-.192-.032-.095-.02a1.691 1.691 0 01-.353-.059l-.221-.056c-.107-.025-.203-.077-.3-.126l-.164-.107-.245-.162-.141-.081-.34-.194a.651.651 0 01-.209-.202 1.17 1.17 0 01-.136-.296l-.04-.124-.018-.096.002-.229.018-.096.026-.094.032-.193.087-.246.093-.244.115-.233.282-.44.073-.108c.101-.128.195-.262.315-.374l.138-.139.249-.21c.163-.115.322-.214.505-.298.148-.068.29-.149.445-.203l.21-.091.154-.054.217-.07.063-.016.252-.064.219-.063.195-.017.193-.031.227-.023a.625.625 0 00.252-.059l.094-.026c.248-.113.512-.183.765-.28l.248-.081.215-.076.063-.017.303-.119.278-.094.124-.041c.104-.035.207-.066.318-.068l.097-.011c.104-.043.214-.035.322-.048l.225-.041a.77.77 0 01.324-.004c.103.041.213.041.322.048l.191.039.063.016c.132.011.252.065.377.1l.216.074.216.074.215.075.217.071.366.137.326.15c.116.058.233.117.341.193l.229.126.23.124c.132.077.259.16.368.27l.257.252a.765.765 0 01.149.213l.119.269.073.216.018.096.011.425a.882.882 0 01-.085.379l-.087.211-.088.175c-.077.144-.154.288-.267.409l-.101.128a3.307 3.307 0 01-.359.38l-.131.096a8.004 8.004 0 01-.64.325c-.179.046-.345.135-.532.154l-.288.054-.223.044-.032.007-.194.029-.189.051-.22.061-.19.046-.218.066a3.03 3.03 0 00-.466.145l-.276.099-.243.094-.22.06-.195.017c-.24.013-.479.013-.719.014l-.227.023-.097.013-.327.009-1.437-.001zm15.639-14.925v.36l.028.193.023.128.051.222.073.284.015.13.038.225.013.064c.014.185.021.37.008.555l-.027.127-.102.275-.113.374-.02.195-.037.158a2.859 2.859 0 01-.266.523 2.06 2.06 0 01-.325.408l-.139.138a2.082 2.082 0 01-.477.34l-.234.116-.276.099-.064.009a2.97 2.97 0 01-.49-.009l-.095-.021-.094-.026a.81.81 0 01-.308-.101 1.646 1.646 0 01-.358-.225l-.131-.097a.984.984 0 01-.276-.319c-.066-.125-.136-.249-.167-.388l-.111-.306-.068-.218-.052-.255v-.065c.04-.124.034-.26.096-.378l.068-.252.016-.096.025-.161.032-.193.011-.163.009-.064.098-.276.079-.143.146-.217c.085-.127.155-.261.196-.41l.068-.217.079-.214.074-.216.038-.125.12-.337.076-.18.076-.18.145-.255.185-.227.12-.111.159-.114.17-.097a.812.812 0 01.274-.103.506.506 0 01.412.01l.183.067c.136.07.268.145.381.25.266.246.305.298.452.629l.079.214.06.186.047.222.007.258zm3.253 1.079l.019-.336.024-.128.027-.16.008-.196.016-.195.094-.278.116-.304.028-.093.083-.348.021-.061.079-.249.063-.253.018-.096c0-.112.045-.212.076-.316a.672.672 0 01.261-.365l.056-.033.122-.045.126-.031c.207-.014.413-.015.62 0l.126.031.092.034.088.041.29.211.277.228.256.252.24.221.166.157.178.232c.066.113.127.226.175.349l.175.421.191.485.05.155.038.158.039.258.001.129-.032.193-.015.228-.017.096-.073.25-.119.338-.057.117c-.089.15-.181.297-.306.421l-.278.276c-.077.077-.15.156-.21.249-.06.091-.137.169-.217.243l-.187.129c-.229.113-.294.132-.531.131l-.228-.014-.095-.02-.247-.082-.245-.087a1.47 1.47 0 01-.381-.183l-.355-.232-.078-.059c-.199-.173-.226-.208-.338-.47l-.063-.219-.021-.128-.046-.256-.02-.129-.047-.256-.016-.096-.017-.315zm40.218 6.462l-.033-.159-.041-.191-.016-.063-.071-.351-.059-.22-.03-.26-.007-.032-.031-.226-.009-.163-.049-.188-.155-.286-.148-.254c-.108-.229-.107-.195-.116-.436l-.001-.196.009-.621.012-.425a4.447 4.447 0 00-.009-.49l-.047-.256-.07-.285-.016-.096-.021-.128c-.037-.094-.04-.192-.043-.289l-.007-.294c-.003-.12-.001-.24-.044-.355l-.009-.065a.886.886 0 00-.064-.286l-.08-.248-.076-.18-.127-.3-.093-.278c-.033-.094-.021-.194-.026-.292l-.007-.196-.026-.127-.029-.094a.801.801 0 00-.129-.262l-.219-.285a1.34 1.34 0 01-.212-.366l-.021-.061-.058-.254-.016-.228-.008-.262-.009-.097-.082-.315-.074-.216-.018-.062-.059-.354-.012-.163-.031-.126-.153-.288a1.908 1.908 0 01-.244-.496c-.108-.312-.111-.314-.23-.539l-.092-.173-.113-.271-.159-.358-.162-.245-.038-.053a1.928 1.928 0 01-.29-.581l-.09-.245a2.913 2.913 0 00-.242-.463 2.59 2.59 0 01-.224-.435l-.026-.094-.073-.284-.097-.277-.089-.21c-.09-.162-.177-.325-.284-.476a4.734 4.734 0 01-.453-.755c-.171-.314-.263-.429-.446-.6l-.095-.09c-.198-.194-.225-.201-.368-.531l-.012-.03c-.133-.287-.155-.289-.342-.471l-.074-.064-.22-.195-.951-.946-.259-.25-.178-.143-.16-.114a1.912 1.912 0 01-.375-.314.967.967 0 01-.182-.23l-.312-.419a2.796 2.796 0 01-.377-.571 2.597 2.597 0 00-.198-.338l-.152-.251-.137-.26-.165-.319a1.636 1.636 0 00-.376-.49l-.152-.124-.114-.117c-.07-.097-.144-.192-.195-.301a1.726 1.726 0 00-.282-.438l-.142-.179-.124-.152a2.367 2.367 0 00-.55-.553 1.893 1.893 0 01-.434-.441l-.328-.448-.186-.227-.188-.182a5.63 5.63 0 01-.416-.416l-.205-.211-.148-.128a3.091 3.091 0 01-.42-.363l-.445-.384-.08-.057-.218-.143c-.125-.087-.255-.168-.365-.275-.087-.084-.189-.147-.289-.214l-.175-.088-.251-.07-.313-.088-.172-.093a1.989 1.989 0 01-.312-.237l-.1-.085a3.91 3.91 0 00-.552-.348l-.497-.247a3.914 3.914 0 01-.566-.325 2.195 2.195 0 00-.343-.187l-.061-.022-.284-.073-.381-.09-.345-.095-.163-.015-.72-.009c-.131-.001-.262-.002-.387-.049a.736.736 0 01-.252-.063l-.281-.085-.278-.095-.279-.09-.188-.055-.226-.031-.063-.016-.129-.019-.294-.004c-.284-.001-.39.101-.542.095l-.128-.021-.591.074-.252-.067-.224-.04-.327.002a.922.922 0 00-.29.042l-.097.013-.262.001-.225-.034-.064-.012-.261-.004-.064.009-.346.094-.381.089-.095.022-.126.032a.671.671 0 00-.252.065l-.344.102-.159.035-.129.02-.222.054-.063.018-.775.253a3.047 3.047 0 00-.451.187l-.219.141-.238.167-.198.114-.15.063-.201.108-.292.254-.167.151c-.04.017-.076.151-.167.197l-.333.288a2.694 2.694 0 00-.406.273l-.15.127c-.184.137-.346.299-.514.455a1.298 1.298 0 00-.267.328c-.108.137-.207.28-.329.406a2.714 2.714 0 00-.303.456c-.08.165-.288.257-.454.273-.287.026-.451.149-.602.185-.316.077-.583.251-.841.436-.549.587-.738.848-.95 1.182-.212.333-.273.576-.061.636.212.061.541-.379.485-.151-.091.363-.545.727-.818.969l-.454.545-.454.606-.303.363c-.081.091-.254.126-.289.244-.038.125-.464.391-.516.512l-.081.141-.151.172-.133.144-.22.241-.114.117a3.4 3.4 0 00-.452.557l-.345.476a3.716 3.716 0 01-.541.566c-.119.079-.217.181-.321.278l-.22.195-.344.249a3.678 3.678 0 00-.439.34l-.305.246-.142.08-.278.091-.253.064-.249.079-.236.112-.382.186-.147.071-.303.122-.094.025-.096.019a.699.699 0 01-.256.046l-.131.008-.096.017-.192.039-.127.027-.218.068-.222.05-.157.044-.224.042-.252.066-.282.081-.293.022-.098.002-.752.005h-2.323l-.752-.006-.425-.018-.096-.016-.226-.031-.556-.016-.49-.002-.262.006a.77.77 0 01-.289-.041l-.128-.023-.128-.024-.224-.039-.392-.008c-.13-.005-.262.01-.389-.038l-.065-.008a5.411 5.411 0 00-.882 0l-.096.016a.74.74 0 01-.356.002l-.096-.016-.36-.007-.096.017-.277.097-.244.091-.189.049-.222.051-.226.032-.031.01-.192.037-.194.027-.192.035c-.108.009-.218.009-.322.048l-.097.014-.261.016-.096.016-.254.058-.278.095-.217.072-.249.076-.156.045-.282.081-.287.061a1.5 1.5 0 00-.352.067l-.065.009-.222.051c-.221.07-.289.092-.457.173l-.419.182a1.659 1.659 0 00-.376.195l-.192.125c-.1.067-.207.122-.319.164l-.313.09-.254.057c-.186.044-.33.088-.463.151l-.264.129-.875.441-.309.182-.653.433-.104.079c-.148.128-.302.249-.439.391l-.463.462-.278.277a1.872 1.872 0 01-.388.298l-.115.062-.202.107-.158.115c-.128.119-.241.252-.355.384l-.171.197-.44.439-.096.089-.48.394-.149.172-.147.291a1.194 1.194 0 01-.336.476l-.071.068c-.118.117-.118.117-.221.282l-.082.141c-.087.164-.19.318-.317.454-.12.128-.218.272-.317.416l-.143.219-.057.08c-.22.257-.458.497-.73.701-.15.112-.28.242-.391.392l-.122.153a3.102 3.102 0 01-.477.446.935.935 0 00-.231.23l-.178.273-.116.197-.286.476c-.086.164-.18.323-.284.477a1.492 1.492 0 00-.222.47l-.046.156-.035.125-.183.454a2.076 2.076 0 00-.105.342l-.085.415-.071.217-.074.25-.094.278-.086.28c-.103.275-.175.56-.296.829l-.037.125-.103.309c-.034.103-.08.203-.091.313l-.054.154-.042.123-.049.155-.08.249-.015.063a1.08 1.08 0 01-.061.287c-.004.122-.059.231-.084.348l-.054.154-.055.153-.049.156a4.254 4.254 0 01-.258.634l-.055.119-.088.246-.029.193-.009.097c-.035.117-.034.236-.039.356l-.013.229-.016.096-.058.221-.076.249-.044.19-.022.128-.046.19-.026.094-.072.216-.054.222-.04.224-.007.425-.001.654-.006.294-.013.097-.053.255-.066.252c-.046.09-.053.188-.063.285l-.012.064-.029.256v1.406c0 .109 0 .217.038.323l.016.13.027.127.058.221.059.254c.043.114.046.234.047.354l.001.327.01.458.011.097.088.28.252.567.083.247.018.096.066.285a.985.985 0 00.113.27l.109.201.13.263.046.156.074.317c.056.142.112.285.217.399l.286.357.073.108.12.195.155.211.092.092.216.148c.137.089.277.174.399.283l.052.039.315.234.306.245.181.187.218.326c.092.148.189.292.298.428l.239.311c.118.172.266.317.415.46l.101.083.236.175.27.184.324.154.092.032c.175.064.338.15.475.28l.331.316c.174.166.364.311.583.415l.267.122.092.033c.14.02.272.083.416.077l.097.011.284.072.222.052.096.017.257.044.129.018.219.065.216.074.246.086c.118.027.226.078.332.134.135.071.27.141.396.228l.383.25c.148.093.3.178.478.2l.285.066.252.067.283.076.224.039.687.008h2.846l.654-.007a.763.763 0 00.32-.054l.348-.087a.85.85 0 01.319-.061l.228-.016.259-.028.458-.018.129-.018c.094-.037.192-.04.289-.048l.16-.031.096-.02.228-.018.096-.017.226-.03a.857.857 0 01.322.039l.065.01.222.051.25.072.26.022.327.007.654.001.131.005c.126.043.259.033.389.042.089.006.17.035.25.07.122.052.23.124.317.225.065.076.11.161.143.255l.039.124.02.096c.004.174.02.348-.043.518l-.019.129-.021.129-.032.225-.013.392-.037.225-.016.096-.002.392.008.065.075.25c.066.161.144.317.244.461l.44.649.094.133c.099.117.204.227.319.328l.104.079c.113.065.227.131.36.148a.718.718 0 00.255.049l.131.007.223.047.187.056.187.058.126.031.291.043.228.004.289-.051.094-.026.558-.181.184-.066.177-.085.215-.147.192-.178.226-.188.167-.157.153-.21.197-.483.04-.158c.044-.114.059-.231.062-.352l.007-.262.011-.097.024-.194.012-.229a.617.617 0 01.068-.25l.059-.116a.579.579 0 01.195-.216l.082-.054a.512.512 0 01.208-.091.585.585 0 01.254-.053c.436-.014.872-.015 1.308.001l.065.004.065.008.284.073.155.05.217.072.06.024c.169.05.321.133.463.237.097.071.184.153.252.254l.056.08c.098.146.176.3.208.475l.086.348.033.159.016.196.02.095.03.16.017.261.022.129.012.064c-.001.141.019.283-.024.422l-.014.13-.024.588-.005.098-.053.322-.009.031-.09.245-.189.38-.165.243-.134.143a.837.837 0 01-.265.188l-.412.199-.15.065-.362.148-.149.065-.088.042-.331.21-.239.171-.09.093-.103.167-.02.062a.538.538 0 00.024.289c.098.256.242.487.387.717l.283.359.288.355.088.137a.54.54 0 01.086.31l-.003.164-.01.097-.037.258-.045.19-.073.284-.011.097-.006.294-.007.262-.03.16-.021.095-.055.221a1.37 1.37 0 01-.215.437l-.221.283-.146.216-.197.412c-.022.098-.083.176-.135.259l-.144.177-.168.155a.94.94 0 00-.202.211l-.147.254a2.332 2.332 0 01-.201.336l-.122.153-.18.272-.094.278-.005.032a.78.78 0 01-.114.269l-.094.134-.09.094-.199.17a.956.956 0 00-.197.259l-.207.37-.194.377c-.096.279-.242.535-.372.798l-.247.497-.096.208-.075.215-.078.283-.027.094-.13.334-.138.331-.134.333-.127.335-.075.216-.076.215-.078.249-.068.218-.119.373-.055.153-.173.526-.037.125-.055.187-.063.185-.088.211-.096.243-.022.095-.013.229c-.005.098-.003.196-.037.291l-.016.129a.645.645 0 01-.058.253l-.107.342-.034.126-.045.323-.008.097-.005.556.002.294c.003.098-.004.197.03.291l.008.065c.016.272.018.545.003.817l-.013.097-.028.226-.017.327-.019.096-.065.219-.047.189-.025.128-.028.16-.021.85.014.425.034.159.058.187.04.158.019.129.036.258.01.36c.004.109.005.218.047.322l.011.064c.006.098.025.193.058.287l.041.191.038.158.041.191.024.128.015.13.099.344.107.342a.49.49 0 01.04.223l-.007.261-.015.096-.029.226.004.294-.017.359-.013.064-.125.228-.279.276a.61.61 0 01-.255.14l-.154.053-.184.065-.214.078-.187.059-.16.033c-.093.036-.19.048-.287.056l-.064.011a.944.944 0 01-.289.046l-.159.035-.127.028-.191.04-.063.017a1.272 1.272 0 00-.35.075l-.221.055-.253.064-.188.052-.226.032-.096.017c-.084.031-.171.033-.258.035l-.229.009-.096.014-.284.073-.19.046-.188.054-.253.065c-.122 0-.233.053-.349.077l-.252.068-.278.093-.094.027-.22.06-.307.11-.329.141-.146.073-.18.076-.215.076-.219.065-.253.063c-.112.04-.23.067-.33.138l-.111.068c-.158.119-.334.206-.508.294-.233.118-.465.238-.703.347a2.71 2.71 0 00-.426.241c-.143.1-.292.19-.449.267l-.278.172-.076.061c-.09.08-.177.164-.245.263-.088.126-.193.236-.298.346l-.251.258-.108.123c-.115.174-.269.314-.395.479l-.117.114c-.151.109-.282.24-.412.372l-.184.186-.204.212-.241.309-.05.084-.157.323-.157.394-.148.362-.08.179-.232.468-.165.355-.032.092-.053.188-.025.128-.044.157-.027.161-.022.062c-.063.193-.065.204-.111.442l-.008.032a.607.607 0 00-.041.256l.003.425.015.097.072.217.122.267.15.213c.182.188.362.377.575.533l.313.236c.109.074.222.139.34.194a.957.957 0 00.308.103l.309.103.343.105.157.042.127.032.063.014c.109.007.217.015.324-.021l.128-.02.36-.002.128.024.218.067.222.053.256.049.161.024.193.032a.8.8 0 00.353-.045.781.781 0 00.249-.076l.091-.037.248-.079.228-.021.164-.002.916-.004.292-.029.162-.015.589-.016.161-.02.258-.04.588-.016h1.603l.392.007.261.02.281.085.246.086.218.069.189.052.186.059.16.032.327.005.294-.016.327.003a.843.843 0 01.318.063l.313.092.216.074.222.052.062.021.127.028.192.038.221.057.218.068.222.051.255.056.064.012.276.099.267.123.149.067.185.063.063.017c.118.021.24.011.355.054h.359c.094-.034.193-.033.291-.041l.254-.055.187-.057.225-.038.095-.025.194-.004.258.043.064.012.282.079.19.042.259.035.097.011.523.006.327.013.096.015.344.101.22.062.26.024.226.029.097.013.261.016.096.015.284.073.224.038.196-.008.316-.081.159-.036.26-.025c.082-.034.17-.036.257-.041l.221-.054.378-.1.223-.045.098-.005.229-.007.225-.039.065-.006c.098-.008.196-.01.288-.054l.064-.013a2.4 2.4 0 01.522-.012.668.668 0 01.253.058c.189.051.374.115.558.18l.249.08.032.006.294.019.392-.009.159-.034.216-.074.3-.127.24-.101.284-.073c.092-.042.19-.044.288-.05l.163-.013.286-.065.247-.083.25-.074.59-.189.159-.032.261-.012.589-.006.458-.001.13-.01.291-.04.158-.038.377-.103.063-.018.16-.031.262-.008.85-.004.327-.005.129-.015.258-.041.129-.019a.8.8 0 01.289-.046l.417-.074.247-.084.262-.134.358-.229.17-.097c.144-.08.301-.125.451-.189l.247-.083.25-.073.161-.029.095-.025.194-.006.224.042.22.059.223.051.096.014.196.003.225-.035.159-.034.155-.049.159-.036.192-.038c.251-.015.501-.015.752 0l.223.047.219.065.253.062.194.021c.436.012.872.011 1.308.001l.098-.005.065-.008.285-.069.314-.087c.103-.041.215-.026.323-.038l.065-.009.223-.047.063-.016.273-.107c.105-.059.224-.083.338-.117l.065-.002.219.063.055.034a.636.636 0 01.261.436l.023.095.026.193-.014.228-.056.255-.07.217-.064.185-.268.595-.016.028-.113.234-.129.264-.224.36c-.091.136-.167.28-.238.428-.066.137-.139.271-.185.418l-.077.18-.103.24-.109.237-.111.236-.097.207a7.31 7.31 0 01-.386.828l-.101.167c-.074.095-.127.203-.183.309l-.117.339-.02.228.011.392.011.064.123.337.145.217.243.217.416.315a.802.802 0 00.259.135l.124.04.095.021c.108.01.218.01.32.058l.195.021c.207.009.414.004.621-.007.098-.005.196-.005.289-.045l.064-.013.195-.02.19-.045.19-.046.213-.081.207-.096.274-.104.418-.071a.58.58 0 00.25-.07l.224-.134c.149-.11.304-.211.474-.287l.029-.016c.165-.085.321-.185.453-.317l.301-.3.157-.166c.106-.11.216-.214.344-.301a1.29 1.29 0 00.342-.349c.092-.137.203-.256.322-.368l.145-.133c.294-.276.578-.563.857-.854l.11-.121.11-.161c.05-.097.112-.186.191-.263l.156-.168.12-.155.073-.108.161-.205.161-.205.166-.281.065-.113.173-.237.13-.188.146-.292.071-.183.059-.152.072-.182.088-.245.127-.265.104-.203.189-.38.065-.149.115-.305.03-.093.098-.345.043-.19.027-.194.033-.225.013-.327.034-.225.014-.097c.008-.174.01-.349.003-.523l-.013-.097a.753.753 0 01-.047-.256l-.064-.286-.075-.18-.158-.285c-.091-.137-.165-.281-.242-.426l-.127-.228c-.123-.207-.271-.395-.412-.588l-.086-.099-.211-.206-.312-.237-.137-.089a6.886 6.886 0 00-.717-.389l-.391-.163-.248-.079-.249-.078-.283-.075-.16-.031-.327-.008-.36-.007-.16-.028-.063-.016c-.121-.005-.235-.044-.349-.08-.114-.036-.228-.074-.35-.075l-.129-.02-.194-.023-.72-.001-.392-.005-.261-.016-.032-.006-.25-.075-.312-.094-.129-.021-.063-.017-.126-.032c-.133-.004-.253-.061-.38-.089l-.276-.1a1.725 1.725 0 01-.42-.177l-.183-.136a.92.92 0 01-.177-.234l-.112-.236-.046-.156-.011-.064a.897.897 0 01-.054-.32 6.803 6.803 0 01-.005-.589c.014-.349.014-.698.012-1.047l-.01-.425-.019-.129-.047-.19-.057-.187c-.031-.115-.079-.227-.08-.349l-.014-.063-.042-.224-.009-.065-.063-.253-.034-.091-.092-.209-.12-.268-.105-.274-.191-.486-.037-.124-.041-.225v-.064l.042-.257.034-.193.001-.096-.023-.095-.029-.194-.062-.186c-.05-.144-.096-.289-.172-.423l-.043-.088c-.06-.104-.098-.218-.138-.331l-.028-.127-.014-.228-.044-.224-.012-.097-.025-.094-.035-.092a1.437 1.437 0 00-.316-.491c-.108-.108-.223-.209-.31-.336l-.466-.504a1.854 1.854 0 00-.346-.298l-.179-.142-.231-.231-.182-.188-.23-.182-.3-.197a1.34 1.34 0 01-.375-.36 2.828 2.828 0 00-.571-.58l-.23-.183-.369-.322-.364-.278c-.119-.095-.251-.173-.381-.253l-.213-.151-.403-.333-.106-.075-.218-.144c-.196-.138-.402-.262-.585-.417a1.812 1.812 0 01-.422-.407 1.573 1.573 0 00-.278-.275 1.788 1.788 0 01-.409-.419 3.022 3.022 0 00-.581-.571 1.615 1.615 0 01-.371-.367 3.39 3.39 0 00-.39-.439l-.234-.229-.083-.101c-.072-.122-.138-.248-.146-.394l-.052-.222c-.011-.122-.063-.23-.115-.338a2.983 2.983 0 00-.275-.482l-.107-.164-.092-.173c-.027-.116-.083-.225-.083-.348l-.025-.128-.04-.158-.03-.093-.108-.238-.276-.556a4.75 4.75 0 00-.401-.672 3.565 3.565 0 01-.295-.47l-.337-.671-.098-.242-.068-.218-.015-.096-.006-.131-.006-.229-.051-.256-.011-.098-.03-.127-.024-.095-.064-.319-.064-.218-.062-.151-.071-.183a.825.825 0 01-.081-.38 4.29 4.29 0 01.027-.555l.015-.063a.654.654 0 000-.323l-.021-.096a4.137 4.137 0 01-.018-.686 4.72 4.72 0 000-.752l-.005-.098a3.984 3.984 0 01.024-.588l.014-.064.028-.193.004-.36.007-.491a.623.623 0 01.044-.256c.011-.132.069-.251.101-.377l.087-.246.074-.216.081-.248.079-.248.07-.217.084-.247.031-.126.012-.326a.808.808 0 00-.065-.318l-.077-.249-.072-.25-.092-.244-.033-.126-.034-.126-.023-.095-.021-.261-.051-.289-.004-.032-.014-.063-.08-.282-.039-.191-.001-.294.046-.223.081-.248.08-.248.143-.364c.129-.252.23-.517.367-.765.074-.17.175-.326.267-.486l.179-.273a3.84 3.84 0 00.353-.587c.086-.176.189-.343.304-.503l.119-.156c.186-.214.319-.389.474-.624l.248-.344.181-.189c.136-.143.293-.259.46-.364l.31-.181.201-.108c.173-.094.337-.201.479-.338l.305-.297.389-.35.099-.085.079-.058.189-.128c.164-.108.324-.221.466-.357.119-.113.253-.206.388-.299l.136-.09c.175-.112.34-.236.494-.374.098-.088.211-.154.32-.226l.059-.028.334-.131.245-.089.237-.11.208-.095.245-.088.161-.024.096-.016.226-.032h.425l.161.021.161.028a.62.62 0 01.249.074l.17.096a.968.968 0 01.266.286c.094.159.194.316.272.484l.197.412.204.445.05.12.084.247.071.217.098.242.016.063.094.278.086.246.086.281.119.303.184.308.233.355.217.326.224.361.13.227c.105.18.227.348.394.474l.377.313c.17.137.353.253.562.326.196.069.38.163.552.28l.276.175c.228.127.461.246.699.355l.246.088.161.025.097.015.258.038.229.014.097.014.257.044c.098.007.196.008.289.049l.064.011.257.045.129.018c.163.011.327.011.49.005l.224-.038.283-.075.257-.046.258-.035.098-.007.096-.019.218-.066.186-.061.188-.053.062-.02.423-.171.277-.096.192-.036.286-.066.063-.016a2.83 2.83 0 00.393-.158c.165-.086.316-.192.468-.298l.293-.208.336-.202.176-.085.122-.047a2.54 2.54 0 00.623-.353 2.54 2.54 0 01.385-.246l.168-.101.331-.21.165-.106.312-.237a5.5 5.5 0 01.598-.454l.137-.089.778-.54.103-.08c.148-.128.306-.245.445-.385l.248-.213.346-.246.387-.243.141-.082.219-.142.204-.163c.136-.126.27-.253.42-.364.105-.078.194-.175.27-.283l.146-.176.179-.19.165-.203.127-.19.16-.246.26-.336a.785.785 0 00.142-.256l.074-.216.076-.18c.072-.122.149-.24.251-.342l.342-.352a.901.901 0 00.166-.241.648.648 0 00.081-.28l.039-.225.019-.096.055-.187.225-.435a1.3 1.3 0 00.15-.289c.068-.162.155-.311.275-.442l.251-.301.062-.076c.083-.13.191-.238.293-.351.163-.182.33-.424.441-.646l.482-.964.205-.409.094-.243.034-.159.015-.063.034-.192.013-.229.017-.096.052-.222.065-.219a.671.671 0 00.061-.253l.056-.221a1.98 1.98 0 01.126-.403l.125-.266c.057-.117.106-.239.144-.363l.089-.28.096-.277.061-.22.024-.26.008-.196.011-.097.032-.226.023-.195.06-.186.077-.18.126-.265c.061-.128.104-.263.14-.399l.045-.223.012-.064.092-.279.119-.304.033-.159-.001-.327v-.36l.044-.223.09-.313.055-.221.017-.228.041-.191c.01-.11.048-.212.083-.315l.089-.21.042-.123.039-.159.012-.064c.003-.109.009-.218-.022-.325a.433.433 0 01-.003-.226l.027-.161c.011-.174.016-.348.012-.523l-.003-.491a9.89 9.89 0 00-.001-.621l.01-.392.026-.128a.978.978 0 00-.01-.436zm-21.592 73.738l.126-.265.075-.215.029-.127.077-.317.091-.209.335-.671.159-.322.059-.186.068-.285.072-.284.033-.092.077-.249.054-.222.014-.096.005-.359.001-.261.038-.191.093-.243c.129-.242.155-.361.256-.668l.069-.217.064-.185.091-.209.087-.246.019-.095.007-.098.033-.192.025-.161.017-.096.079-.282.12-.337c.047-.11.084-.224.162-.319a.758.758 0 01.159-.206l.144-.133.107-.075c.114-.064.227-.13.357-.156a.488.488 0 01.222-.044l.196.004.127.026.248.079.215.074.248.08c.125.037.241.098.358.157.127.063.248.136.362.22l.178.143c.16.148.311.305.461.463.091.095.16.206.23.316l.095.242.038.191.01.45-.021.366-.014.097-.034.258-.015.392-.032.193-.018.129-.013.261-.013.13c-.047.148-.041.301-.051.453l-.042.29-.023.227-.036.225-.023.161c-.01.108-.013.217-.055.32l-.009.065-.059.185-.221.399-.271.446-.258.416-.064.114a2.246 2.246 0 01-.292.432l-.139.181-.243.265a4.681 4.681 0 00-.363.461 4.36 4.36 0 01-.345.435l-.41.422-.154.12c-.199.132-.404.257-.592.406l-.387.242-.11.07-.147.07-.267.122-.084.049-.079.058-.296.202-.241.22-.149.058-.261-.004-.095-.02a1.62 1.62 0 01-.482-.269.82.82 0 01-.23-.273l-.074-.145-.04-.123-.033-.16-.003-.096.037-.192.018-.096.071-.284.037-.257c-.003-.145.044-.279.088-.413l.138-.331.209-.409zM31.077 95.829l-.123.152-.777 1.17a3.58 3.58 0 00-.35.662l-.188.452-.083.177c-.065.138-.138.271-.186.417l-.082.178-.111.271-.147.327-.103.239-.08.248-.049.222-.009.163-.027.127-.022.095c0 .123-.049.234-.085.348a.4.4 0 01-.126.188l-.214.149-.522.269-.276.1-.096.017-.097.012-.191.042-.327.009-.065-.001-.193-.031-.369-.13-.181-.074a.705.705 0 01-.301-.189.925.925 0 01-.226-.317c-.038-.09-.083-.178-.089-.279l-.025-.094-.004-.096.043-.191.026-.094.127-.3.059-.117.293-.509.233-.354.118-.156c.113-.147.212-.303.29-.472a.433.433 0 00.027-.256c-.009-.056-.076-.12-.134-.127l-.065-.007-.131.004-.226.027a1.254 1.254 0 00-.344.184l-.101.082c-.147.097-.265.225-.384.353l-.041.051c-.058.107-.144.192-.226.278l-.297.348-.04.051-.345.476-.135.223-.095.132a2.539 2.539 0 00-.317.414l-.055.081a3.969 3.969 0 01-.478.492l-.229.123-.096.018-.294.017-.098.005c-.16.045-.324.033-.487.036h-.033l-.129-.02-.127-.03a.651.651 0 01-.293-.138l-.251-.209-.044-.048-.107-.123a1.25 1.25 0 01-.258-.413l-.031-.126-.012-.163.011-.261.073-.216.023-.061.109-.272.101-.275.088-.28.031-.092.112-.271.105-.202c.074-.107.138-.222.232-.315.111-.148.23-.29.356-.426l.111-.161.19-.304.38-.571.08-.103c.118-.129.242-.25.386-.351l.392-.294.217-.145.195-.118.166-.104c.195-.119.386-.245.591-.347.253-.126.503-.258.768-.36l.418-.184.416-.187.469-.23.465-.239 1.02-.516c.165-.084.337-.153.515-.203l.25-.076.214-.079.19-.044.191-.04.249-.078.221-.057.096-.018.196-.014.128-.022.095-.021c.156.002.295-.076.447-.092a.557.557 0 01.255-.041h.392v.002l.294.001.259.027.097.01.196.011c.089.002.171.03.25.068l.293.143.113.114.047.086c.06.118.093.242.093.376l-.025.588-.044.257a.478.478 0 01-.139.321 2.186 2.186 0 01-.596.451l-.297.135c-.099.014-.183.068-.271.11l-.249.155a3.496 3.496 0 00-.554.45zm31.776 2.265a.564.564 0 01.346.326c.039.09.079.179.086.28l.025.094.023.095c.017.163.024.326.009.49l-.026.128-.039.158a3.014 3.014 0 00-.015.425l.006.294-.032.192-.072.216-.108.163-.092.093-.159.113a2.466 2.466 0 01-.42.179l-.248.082-.219.062-.063.016-.192.036-.666.012-.642-.014-.16-.031-.126-.034-.214-.077-.25-.155a1.046 1.046 0 01-.208-.207l-.038-.053a2.156 2.156 0 01-.205-.514l-.046-.19-.017-.096v-.36l.035-.192.021-.095.039-.158.084-.315.01-.097.01-.36.027-.127.061-.151.129-.188.222-.192.158-.116.164-.107c.329-.179.346-.178.681-.186a1.8 1.8 0 01.359.022l.144.073c.086.084.166.172.229.276l.107.164.056.08c.156.182.176.197.419.197l.13-.01.094-.026.195-.118.102-.082.058-.028a.43.43 0 01.228.013zm-2.585-8.593l.029.016c.057.036.319.264.368.321l.086.098c.101.101.175.222.249.342l.053.118.075.181c.064.139.151.264.249.381l.044.048c.191.208.182.2.309.456l.266.524.124.301.05.189.071.351.096.277.126.265.069.148.055.153.041.157.026.128.02.129v.294h.002v.261l-.022.161-.021.095-.028.194-.08.248-.093.243-.145.292c-.052.095-.106.19-.179.272l-.099.13-.114.117-.053.036-.251.066-.359.018-.192.032-.063.015-.255.05-.217.071-.215.076-.156.048-.127.029-.127.027-.128.024-.49-.003-.096-.014-.16-.03-.124-.039-.176-.085-.227-.129-.31-.239-.214-.201-.217-.197-.116-.114-.303-.342-.159-.207a1.879 1.879 0 01-.242-.496l-.065-.184-.06-.253-.016-.096a.661.661 0 01-.038-.257l-.007-.392-.033-.192-.079-.282-.064-.286.003-.162.038-.158c.003-.133.066-.252.09-.38l.117-.304.179-.42c.044-.158.123-.301.191-.449.064-.14.151-.264.238-.389l.138-.138.216-.147a3.17 3.17 0 00.4-.282l.261-.196.083-.051.204-.102.183-.069.278-.092.248-.078a.754.754 0 01.318-.061c.245-.002.281 0 .527.134zM50.25 77.368c.101.12.144.267.188.413l.017.162.027.16.085.246.073.146c.074.158.163.308.214.476l.147.254c.114.146.218.299.309.461l.142.219.083.101.181.189c.197.196.328.432.43.687l.081.248a.845.845 0 01.062.318c.016.305.009.61-.003.915l-.005.327.027.127.056.153.069.148.129.264.11.306.056.221.053.188.016.063.045.19.125.301c.076.145.169.279.28.4l.068.071.16.206c.089.154.216.272.364.37l.192.123.265.127.506.227.327.147.146.072.139.086.67.339.212.083.22.057.094.027.063.014.555.027c.332.003.344-.004.656-.159a.887.887 0 00.239-.169l.346-.348.098-.086.125-.019.239.104.174.147.406.512c.091.111.154.237.207.368l.02.095.007.196a.537.537 0 01-.075.28l-.056.08a.8.8 0 01-.254.201 3.244 3.244 0 01-.452.187l-.157.041-.127.028-.161.025-.392.012-.192.036-.063.016-.158.039-.213.081-.353.17-.337.2-.078.06c-.14.122-.271.252-.364.416l-.145.218a2.097 2.097 0 00-.214.366c-.076.168-.164.331-.222.508a1.746 1.746 0 01-.188.38c-.111.175-.204.36-.3.543l-.105.165c-.173.2-.289.434-.399.672l-.153.43-.01.064-.014.229-.025.128-.003.096.021.096c.007.174.019.349.007.523l-.013.097-.037.258-.011.261-.024.161-.019.129-.005.294.027.259.023.227a.77.77 0 00.049.255l.044.19.071.217.063.185.037.158c.023.272.023.545.007.817a7.498 7.498 0 00-.01.687l.007.163.011.13.006.032.067.352.04.191c.018.14.009.284.051.421l.008.359-.009.064-.047.29-.025.128-.03.127-.067.318-.061.22-.073.181a1.06 1.06 0 01-.281.397l-.072.066-.164.106-.216.074-.127.029-.224.044-.227.029-.225.036-.097.013-.686.02-.193.027-.096.015-.228.016-.191.041-.063.016-.253.061-.22.059-.217.069-.254.058-.194.026-.258.039-.161.021-.224.041-.161.022-.223.044-.156.047-.243.095-.275.102-.156.045c-.127.027-.251.072-.383.075l-.032.007c-.093.04-.191.04-.289.041h-.065c-.403-.009-.807 0-1.21.011l-.687.005-.589.005c-.305.002-.61-.013-.915-.032l-.064-.013-.193-.032-.261-.012-.097-.01c-.104-.04-.213-.04-.321-.057l-.085-.046-.247-.261c-.084-.1-.16-.207-.218-.324l-.123-.267-.045-.156-.034-.126-.004-.095.03-.127.017-.228.026-.128.024-.128.004-.196a.62.62 0 00-.083-.312l-.096-.085-.062-.022-.094-.002-.204.103-.075.063-.174.195-.105.125a1.316 1.316 0 00-.25.381l-.29.586-.088.175a2.188 2.188 0 01-.257.378l-.023.024-.274.232c-.095.076-.207.12-.318.163l-.095.019a4.62 4.62 0 01-.588.015.786.786 0 01-.286-.059l-.214-.079-.276-.1-.192-.034-.425-.001-.294-.004c-.087-.003-.174-.005-.257-.04l-.096-.017-.348-.085-.14-.083-.309-.292-.133-.185-.103-.239-.079-.248a.879.879 0 01-.065-.351l.037-.157.123-.23.09-.245.027-.128a.687.687 0 01.121-.265l.041-.051c.151-.159.266-.345.387-.526l.077-.144.069-.25-.004-.032-.05-.12-.129-.094a.9.9 0 00-.293-.005l-.063.017a4.523 4.523 0 00-.466.236l-.159.114-.3.252-.214.202-.041.051-.308.461-.162.284-.071.147-.197.376-.217.326-.052.083-.118.156-.306.295c-.1.087-.218.144-.34.19l-.128.024a1.372 1.372 0 01-.326-.02l-.062-.019-.187-.059-.187-.057a.575.575 0 00-.285-.063l-.291-.035-.13-.013-.121-.045a2.277 2.277 0 01-.363-.277l-.143-.135c-.106-.086-.159-.206-.208-.327l-.05-.155-.026-.128a3.486 3.486 0 01-.009-.49l.009-.196c-.006-.123.041-.235.068-.351l.039-.09.125-.229c.085-.115.135-.248.204-.372l.236-.572.068-.148.037-.09c.038-.161.116-.304.197-.446l.126-.148.256-.203.112-.067.35-.176c.117-.058.234-.117.36-.153l.36-.152c.177-.083.358-.162.517-.278l.507-.298.325-.22.191-.126.194-.121.215-.147.184-.136c.103-.08.22-.142.31-.239l.189-.129.25-.154.148-.067.397-.148.179-.08.155-.049.185-.064a.761.761 0 01.252-.064.741.741 0 00.255-.05l.416-.082.094-.025.157-.045.154-.054.182-.071.161-.028.193-.027 1.014-.012 1.374-.011v.002l1.439-.004c.305-.001.61.012.915.024l.226.031.129.017.261.016.125.034.321.161.081.055.37.322.142.136c.165.143.323.293.472.452l.131.097.155.044h.098a.314.314 0 00.225-.118l.212-.248.133-.144.056-.08.132-.262.067-.218.034-.126.014-.063.001-.229-.012-.064a1.625 1.625 0 01-.041-.486l.023-.095.068-.148.085-.246.021-.162a2.432 2.432 0 00-.004-.49 1.878 1.878 0 01.007-.424l.02-.095.046-.223.026-.127.031-.159-.001-.425-.011-.097c-.047-.114-.039-.236-.052-.354l-.013-.097c-.049-.113-.042-.235-.061-.353l-.024-.095-.078-.316-.014-.097-.041-.191-.022-.095-.053-.255-.021-.129-.022-.128-.038-.225-.011-.294-.029-.193-.015-.096-.012-.196c-.007-.109-.007-.217-.046-.322l-.018-.129-.037-.158-.027-.127-.013-.097-.05-.189-.016-.196-.005-.032c-.054-.158-.05-.322-.053-.485l-.001-.589-.002-.262-.016-.129-.033-.226-.03-.292-.051-.222-.069-.285-.053-.154-.051-.12-.185-.382c-.075-.147-.108-.163-.262-.229h-.063l-.091.036-.052.039a2.397 2.397 0 00-.19.379l-.016.063-.067.251-.098.311-.055.221-.057.254-.01.064c-.047.125-.048.256-.055.387l-.037.225-.02.129-.045.257-.021.129-.052.289-.018.129-.014.097c-.044.114-.048.234-.061.353l-.023.095-.025.128-.021.294-.04.291v.294l.005.294.009.097c.039.116.03.237.04.356.008.108.004.219.046.322l.023.195.04.258.021.162.043.224.021.128.04.258.019.129.027.26c.038.082.034.17.035.257l.012.654.016.49.017.129a.765.765 0 01-.001.356l-.015.096-.019.261-.038.158-.084.213a.688.688 0 01-.404.402.329.329 0 01-.193.017l-.254-.06-.089-.039-.411-.2c-.089-.039-.178-.083-.279-.089l-.095-.025-.096-.02-.457-.021c-.131-.002-.262.009-.389-.031l-.032-.004-.49-.019-.654-.001c-.382 0-.763.004-1.145-.009l-.226-.031-.129.001-.193.028a7.859 7.859 0 01-.752.002l-.126-.03-.209-.093c-.174-.091-.358-.158-.539-.234l-.244-.092-.204-.103a.803.803 0 01-.289-.26 2.522 2.522 0 01-.205-.333l-.043-.088-.144-.256-.178-.234-.089-.096-.137-.141a1.525 1.525 0 01-.28-.4l-.247-.497-.087-.211-.091-.209a1.393 1.393 0 00-.222-.36l-.206-.253a1.35 1.35 0 01-.246-.421l-.008-.032-.056-.153-.136-.401-.067-.218-.071-.217-.049-.155-.014-.228-.01-.425-.012-.097-.032-.226-.018-.327-.013-.097c-.037-.104-.041-.214-.052-.322l-.012-.064c-.052-.112-.05-.233-.061-.352l-.003-.032c-.054-.192-.048-.389-.049-.585l.009-.654c.002-.098.001-.196.032-.291l.014-.129c.014-.239.027-.479.026-.719l.018-.162-.007-.16.004-.096.021-.128.021-.425.019-.129a.776.776 0 00.046-.256l.043-.224.018-.129.046-.257.015-.096.014-.229.017-.129c.033-.095.033-.193.033-.291v-.491l.017-.588.012-.13c.038-.117.031-.237.038-.356l.011-.261.029-.16.018-.063c.018-.132.071-.25.129-.368.091-.187.197-.364.315-.534a3.04 3.04 0 00.344-.665l.097-.277.117-.27.066-.184.147-.363.089-.245.015-.063.057-.186.241-.5.175-.351.115-.269.129-.227.187-.307.079-.104.226-.279.194-.221.188-.226c.13-.174.267-.344.386-.526l.083-.101.202-.257.194-.221.235-.314.104-.125.43-.448.259-.294.064-.074c.133-.131.237-.284.342-.437l.132-.186.269-.328c.117-.116.203-.256.304-.384l.05-.084c.054-.107.112-.211.147-.327l.076-.18.079-.214.064-.185c.039-.125.083-.248.14-.366.034-.127.091-.244.146-.363l.072-.182.06-.151.048-.121.079-.179.077-.214.068-.184.05-.12a.842.842 0 01.273-.361c.103-.08.207-.16.326-.216l.207-.098.089-.042.185-.064.187-.057.127-.027.224-.045.129-.019.261-.013.097-.01c.127-.043.259-.031.389-.041l.261-.011.097-.014.256-.046c.119-.009.24-.004.355-.049l.228-.01.095.02.246.087.207.096c.18.088.319.226.441.382l.05.084.097.207.079.248.089.313a.704.704 0 01.054.351l-.037.191-.038.125a.759.759 0 00-.067.317l-.005.294-.025.259-.013.13-.002.196.023.161.022.095c.005.133.064.252.093.379l.062.185c.046.09.054.187.06.286l.003.262a9.185 9.185 0 000 .621v.36l-.005.294.031.225.024.128.042.191.023.095.06.254c.012.133.056.254.109.374l.111.235c.076.119.138.247.195.377l.059.186.026.094.028.16.011.294.023.128.09.279.062.186.032.16.042.224.012.196.016.096.095.278c.094.233.212.453.351.663.102.155.18.323.247.496l.141.365.062.115c.092.148.178.3.253.457.085.182.19.36.324.519zm33.619-43.995l-.084.247-.027.06a3.107 3.107 0 00-.164.46l-.031.16-.008.621-.003 2.094-.005.163-.017.096-.029.127-.066.285-.058.187-.032.193-.06.287-.01.031-.058.22-.084.247-.071.217-.191.589-.025.094-.084.416-.041.123-.067.252-.054.255-.014.097-.011.196-.043.223-.083.315-.06.22-.017.195-.034.193-.029.227-.036.125a1.749 1.749 0 01-.166.318l-.115.197c-.061.116-.103.24-.13.368l-.058.22a.804.804 0 01-.103.274 9.283 9.283 0 00-.437.876l-.092.173-.081.142-.129.264-.077.249-.059.186a.885.885 0 01-.165.316c-.092.11-.165.231-.227.358-.105.216-.23.42-.354.625l-.126.265a2.931 2.931 0 01-.324.639l-.129.227-.161.321-.153.211-.188.182c-.251.246-.265.266-.425.611l-.114.305c-.04.175-.142.317-.248.455l-.163.159c-.133.097-.249.212-.368.324l-.321.278c-.132.098-.24.221-.328.361l-.12.194a1.54 1.54 0 01-.513.539l-.352.237a1.292 1.292 0 00-.269.236l-.075.107-.094.172-.147.255a.9.9 0 01-.271.278l-.307.186-.115.062-.209.155-.138.139-.089.096c-.258.275-.284.301-.669.514a5.297 5.297 0 00-.445.273l-.281.166-.262.132-.229.125a2.828 2.828 0 01-.527.258l-.334.131-.307.11-.243.093-.345.186-.17.097a3.064 3.064 0 00-.52.337l-.164.107a2.837 2.837 0 01-.57.241l-.124.039-.096.019-.261.004a6.02 6.02 0 00-.817.005l-.033.001c-.227.007-.229.006-.442-.084l-.242-.097c-.19-.086-.362-.199-.54-.306l-.142-.134-.272-.407-.276-.481a2.786 2.786 0 00-.317-.494l-.249-.303-.285-.358-.054-.082a5.158 5.158 0 01-.305-.614l-.027-.094-.046-.19-.056-.221-.068-.218-.026-.128-.016-.228-.011-.097c-.037-.105-.037-.214-.049-.322l-.019-.096a.772.772 0 01-.04-.257c-.01-.272-.014-.545-.012-.818a1.028 1.028 0 00-.029-.292l-.013-.13-.016-.327-.022-.128a.461.461 0 01-.01-.289.383.383 0 00-.002-.225l-.014-.129-.021-.425-.01-.097c-.047-.137-.042-.279-.043-.421l.013-.261-.04-.176c.036-.386-.069-.435-.04-.767.029-.331.08-.443.131-.716.071-.376.011-.233.011-.443l.023-.239-.015-.198-.016-.096a16.94 16.94 0 01-.004-1.275l.038-.191.065-.252.069-.218.023-.128.037-.258.011-.097.005-.392.001-1.014.011-.392.04-.191.067-.252.065-.219.018-.096.015-.392.004-.262.017-.129.026-.161c.008-.098.01-.197.059-.286l.065-.253.056-.255.015-.096.012-.229.025-.127.062-.219.057-.221.024-.061c.077-.26.161-.519.25-.776l.062-.185.051-.189.064-.219.112-.34.112-.341.019-.062.08-.282.09-.279.071-.217.072-.216.096-.345.068-.251.088-.28.031-.126.05-.256.005-.032c0-.123.045-.234.097-.343l.04-.089.073-.216a.741.741 0 01.145-.29l.097-.131.081-.142c.064-.12.08-.248.064-.381l-.014-.063-.128-.264-.144-.13a.418.418 0 00-.318-.016l-.145.074-.212.153-.115.116-.267.371-.24.31-.191.265c-.077.106-.155.21-.247.304l-.068.071c-.087.097-.19.18-.261.292l-.218.286-.082.102-.111.16-.161.284-.092.313-.018.062-.068.218-.047.19-.032.092-.07.217-.078.179-.061.151a3.229 3.229 0 01-.331.636 1.888 1.888 0 00-.199.445l-.074.284-.029.093-.076.181-.076.215-.06.254-.011.097a.771.771 0 01-.083.347l-.101.24c-.058.106-.085.223-.122.337l-.021.095c-.004.133-.064.253-.09.38l-.072.216-.04.158-.012.097-.036.159-.008.229-.013.556-.013.13c-.044.126-.043.257-.056.387l-.018.096-.037.192-.046.257-.018.129a9.192 9.192 0 00-.014.621l-.027.226-.016.096-.03.226-.057.187-.065.252-.018.063-.029.16-.007.425-.006.491-.032.193-.052.222-.059.186-.074.216-.041.124-.044.123-.025.095-.046.122-.059.221-.021.128-.015.425c-.003.109.009.219-.031.324l-.015.196a.62.62 0 01-.055.254l-.065.219-.055.222-.016.063c-.01.109-.029.216-.066.319a1.288 1.288 0 01-.219.505l-.184.228-.127.103-.246.161-.272.181-.281.166a.832.832 0 01-.277.093l-.287.059-.249.077-.121.048c-.15.059-.518.231-.651.302l-.184.135-.231.231-.252.207-.513.35-.184.136c-.16.132-.322.26-.47.405a1.914 1.914 0 01-.307.244l-.213.151-.209.156-.245.216a4.645 4.645 0 01-.502.417l-.129.1-.197.173-.18.141c-.1.085-.202.167-.319.227l-.32.227-.148.129-.35.344c-.19.198-.407.361-.642.501l-.171.095-.553.281-.308.184a1.043 1.043 0 00-.278.272l-.093.134c-.09.151-.207.28-.329.405l-.348.346c-.12.114-.211.249-.308.38l-.047.086c-.095.171-.183.346-.292.51l-.155.287-.139.259c-.102.18-.211.356-.334.523l-.038.053-.182.31-.137.401-.015.063a1.34 1.34 0 01-.065.319.732.732 0 01-.089.278c-.056.118-.112.236-.187.344l-.152.288-.038.124-.079.282-.067.149a.897.897 0 01-.238.308l-.087.041-.13.013-.096.017-.159.033c-.294.014-.588.023-.883.017a31.162 31.162 0 00-1.014-.007c-.382.004-.763-.004-1.145-.015l-.097-.009c-.115-.039-.236-.042-.354-.056l-.219-.064-.054-.034-.143-.178a.727.727 0 01-.143-.325l-.006-.032a1.033 1.033 0 01-.053-.353l-.002-.294v-1.047l-.008-.392-.01-.097-.059-.254-.197-.553-.013-.03a1.937 1.937 0 00-.316-.493c-.099-.116-.207-.224-.29-.354a2.382 2.382 0 00-.399-.385l-.202-.166a9.224 9.224 0 01-.601-.602l-.125-.151-.195-.22-.184-.135-.144-.076-.258-.141-.235-.176-.121-.109-.329-.318a1.166 1.166 0 00-.507-.284l-.254-.058-.127-.028-.062-.02-.195-.025-.189-.05-.127-.027-.215-.076-.178-.083c-.091-.036-.178-.084-.278-.09a.85.85 0 00-.32-.056l-.262-.006-.258-.034-.162-.023-.095-.022-.222-.051-.096-.019-.225-.037a.656.656 0 01-.255-.051 1.043 1.043 0 01-.339-.113l-.301-.126-.28-.087-.097-.012-.392-.014-.193-.03-.064-.014-.194-.027-.217-.071-.217-.07-.221-.055-.255-.053-.223-.045-.064-.012-.192-.034-.276-.099-.209-.093-.246-.086-.128-.023-.16-.033-.128-.025c-.174-.012-.348-.022-.523-.012l-.261.013a4.806 4.806 0 01-.588 0 13.97 13.97 0 00-.915-.023c-.24 0-.48.012-.719.027l-.097.013-.226.028-1.21.002c-.098 0-.197.003-.291-.034-.218-.015-.435-.033-.653-.028l-.425.02-.065.009c-.105.039-.215.03-.324.034l-.523.015-.129.016c-.148.053-.3.047-.453.048l-.262-.006-.294.005-.097.012-.314.088-.127.028-.261.016-.161.023-.194.006-.259-.03-.261-.018-.095-.023-.188-.056-.185-.063-.186-.061-.185-.063-.184-.065-.12-.05c-.154-.063-.253-.09-.465-.148-.136-.037-.273-.072-.404-.127l-.202-.107-.255-.146a.606.606 0 00-.25-.068l-.196-.009-.097-.01c-.105-.036-.215-.035-.323-.046l-.127-.031-.126-.034-.094-.027-.03-.013-.274-.106-.149-.065c-.156-.079-.323-.129-.487-.187l-.303-.119-.086-.047c-.13-.099-.264-.192-.38-.309l-.511-.507a1.876 1.876 0 00-.506-.354l-.204-.102a1.077 1.077 0 01-.349-.291l-.019-.027a1.329 1.329 0 00-.496-.415l-.172-.094a1.358 1.358 0 01-.414-.366c-.1-.13-.214-.247-.327-.365l-.247-.262-.12-.155-.127-.19a4.7 4.7 0 00-.452-.599 2.283 2.283 0 01-.311-.458 10.628 10.628 0 01-.297-.618l-.112-.306-.08-.248-.115-.27-.109-.237-.095-.208-.067-.217-.012-.064c-.05-.125-.04-.255-.029-.386l.016-.063a.701.701 0 00-.003-.292l-.022-.095c-.003-.156-.065-.297-.104-.443l-.062-.185-.053-.188-.059-.186-.07-.318-.013-.064-.044-.223-.046-.257-.019-.162c-.011-.119-.005-.24-.043-.356l-.008-.097v-.393l.017-.129.021-.129.028-.26.079-.249.03-.093.063-.253.057-.254.015-.097.039-.158.037-.125a1.02 1.02 0 00.067-.318l.011-.097c.04-.116.033-.237.035-.356l.005-.556a1.266 1.266 0 01.112-.473l.106-.273a.52.52 0 00.048-.254l-.003-.229.002-.36.04-.191.093-.243.09-.244.035-.192.004-.196.017-.228.057-.187.086-.246.043-.157.074-.317.139-.366.139-.33.07-.217.037-.192.019-.096.063-.22.053-.154.082-.178c.064-.126.132-.25.212-.367a4.02 4.02 0 00.285-.476l.066-.113a1.38 1.38 0 01.244-.305l.23-.233.12-.155.232-.394.119-.303.033-.159.016-.196.11-.375.172-.387.243-.425.1-.129a3.64 3.64 0 01.523-.493c.104-.081.197-.171.277-.276l.123-.152.479-.536.066-.073.149-.214.148-.291.122-.192a1.39 1.39 0 01.227-.233l.377-.313.072-.066.118-.113c.243-.232.242-.233.534-.429.183-.123.339-.274.462-.456.136-.201.305-.371.503-.509.136-.095.251-.208.346-.343a1.51 1.51 0 01.446-.426l.217-.146c.159-.117.333-.205.513-.286l.209-.091a1.86 1.86 0 00.562-.386l.535-.529.142-.136c.114-.102.242-.185.377-.256.136-.071.282-.113.425-.166.166-.061.386-.165.527-.257l.38-.255.224-.135.525-.265c.176-.086.358-.159.546-.213l.217-.07.214-.078.216-.075.247-.085.274-.106.237-.109.243-.096.248-.08.286-.066.129-.021.312-.093.125-.036c.093-.031.186-.06.286-.064l.126-.032.031-.011c.121-.008.232-.059.347-.091l.252-.066.063-.016.192-.034.491-.009 1.047-.001.294-.003a.78.78 0 00.257-.04l.222-.049.25-.072.216-.072.403-.132.191-.042c.138-.052.279-.04.42-.034l.064.013.094.027.222.053.189.048a.75.75 0 00.256.048l.425.011h.883l.194.021.097.014.261.015.159.033.221.054.221.054.063.017.16.03c.283.011.567.009.85.002l.192-.033.096-.021.158-.039.314-.086.13-.014.225-.035.259-.028.128-.022.219-.064.222-.049c.153-.015.305-.01.457.008l.095.02a.79.79 0 00.288.05c.153.005.306.005.449-.059l.223-.051.192-.033.126-.031.063-.018.347-.091.22-.06.063-.016.192-.037.163-.009.128-.024.095-.024c.143-.009.274-.069.411-.102l.093-.029.227-.026.192-.037.229-.011c.101 0 .193-.03.283-.072l.197-.115.078-.06.347-.244.339-.197.332-.208c.201-.152.419-.274.644-.385.206-.102.399-.223.585-.357.116-.083.216-.183.308-.291l.231-.316c.127-.165.273-.312.432-.444l.109-.071.278-.171.182-.137.024-.022c.292-.284.314-.316.47-.658l.053-.119.085-.176c.1-.183.221-.348.367-.498.145-.149.406-.492.561-.762l.089-.174a1.44 1.44 0 01.205-.37l.342-.517.133-.186.114-.116c.107-.077.198-.171.289-.265l.107-.124.171-.198.173-.149c.193-.144.369-.306.525-.49l.122-.153c.097-.133.213-.245.346-.344l.308-.292.204-.244c.048-.026.051-.148.193-.239.142-.091.187-.108.239-.097l.204.04.15.091.059.027.206.098.187.059c.06.025.16.077.221.168l.131.227c.038.058.127.248.182.244.055-.004.182-.094.227-.128l.104-.079.049-.042.125-.295.094-.361.084-.247.02-.095.043-.224.003-.129-.037-.225-.046-.223-.058-.254-.072-.217-.002-.064-.07-.181c.002-.122.069-.22.106-.333.034-.104.157-.163.231-.244a1.89 1.89 0 01.391-.345c.159-.135.34-.235.526-.326l.233-.119.227-.129.642-.322.468-.233.264-.13.271-.112.187-.054.094-.026.16-.028.392-.012.193-.031.063-.014c.144-.004.274-.066.411-.099l.189-.048.222-.051.229-.013.192-.037.283-.075.253-.062.129-.02.458-.015h1.145l1.145.001.458.015.191.04.249.078.282.081.249.077.247.085.062.021.321.059.097.007.327.003 1.014.004.229.006.192.037.031.011c.133.014.251.068.369.125.157.076.312.155.454.256l.301.196c.145.098.3.176.464.236l.335.128c.159.072.319.142.463.242.224.156.462.287.706.409.146.073.295.141.429.236l.165.106c.121.077.224.174.309.288l.172.197.201.166.132.097c.149.095.271.216.373.361l.244.307.043.049c.106.076.197.172.319.227l.144.078c.138.07.257.163.362.276l.132.186.163.32.104.165c.149.191.213.267.344.393l.171.152c.152.124.296.258.432.399a.96.96 0 01.168.24l.127.3.065.184.058.187.054.254.047.223.008.032c.021.201.12.371.213.544.124.179.246.36.354.549l.303.385.15.173.093.134.119.195.298.544.141.22c.102.128.189.266.274.406.079.13.161.259.254.38l.128.19c.107.177.209.357.303.541.099.195.22.375.37.536.112.12.203.255.295.391l.241.35.27.328.14.18c.161.207.283.439.424.659l.09.21.075.283.057.22.057.187.065.219.059.22c.075.242.081.267.16.427l.141.33.106.239.128.228.223.362.041.089.144.364c.061.128.116.258.198.375l.253.381c.112.174.212.355.267.557l.086.246.073.216.025.128.005.36.002.392.029.16.017.063.023.195.051.189.032.126.08.214.187.381.26.527.134.333.033.126c.026.128.07.252.074.384l.017.063.031.127.049.256.019.129.043.257.026.194.044.257.02.129.019.129c.041.104.044.213.053.321l.022.162a.69.69 0 01.003.355l-.015.096-.003.294.014.096.034.226.014.425c.002.087 0 .175.034.258l.007.032.024.195.056.187.022.095.098.277.078.249.091.279.083.247.021.095.015.13.04.191.005.196.014.327.013.097c.045.115.042.235.042.355l-.017.216zM25.607 147.639v4.258h-1.22v-4.258h-1.463v-1.182h4.154v1.182h-1.471zm5.757 1.552c0-1.826.961-2.868 2.609-2.868 1.633 0 2.557.998 2.557 2.846 0 1.841-1.027 2.831-2.617 2.831-1.647 0-2.549-.968-2.549-2.809zm3.917-.007c0-1.183-.502-1.737-1.33-1.737-.836 0-1.338.554-1.338 1.737 0 1.182.488 1.693 1.345 1.693.806-.001 1.323-.533 1.323-1.693zm7.842.48l-.665.843v1.39h-1.212v-5.44h1.212v2.506l1.885-2.506h1.309l-1.671 2.114 2.047 3.326H44.58l-1.457-2.233zm9.814 2.232h-1.249v-1.774l-1.855-3.666h1.456l1.094 2.528 1.05-2.528h1.309l-1.804 3.666v1.774zm5.934-2.705c0-1.826.961-2.868 2.609-2.868 1.633 0 2.557.998 2.557 2.846 0 1.841-1.027 2.831-2.617 2.831-1.647 0-2.549-.968-2.549-2.809zm3.917-.007c0-1.183-.502-1.737-1.33-1.737-.836 0-1.338.554-1.338 1.737 0 1.182.488 1.693 1.345 1.693.806-.001 1.323-.533 1.323-1.693z"/></svg>